<svg width="31" height="40" viewBox="0 0 31 40" fill="none" xmlns="http://www.w3.org/2000/svg">
<g id="Group">
<path id="Vector" fill-rule="evenodd" clip-rule="evenodd" d="M22.5623 10.7664C22.8012 11.0712 22.9354 11.4844 22.9354 11.9153C22.9354 12.3462 22.8012 12.7594 22.5623 13.0642L17.0929 20.0403L22.5623 27.0164C22.684 27.1663 22.7811 27.3456 22.8479 27.5439C22.9146 27.7422 22.9498 27.9554 22.9512 28.1712C22.9527 28.3869 22.9205 28.6009 22.8564 28.8006C22.7924 29.0003 22.6978 29.1817 22.5781 29.3343C22.4585 29.4869 22.3163 29.6076 22.1597 29.6893C22.0031 29.771 21.8353 29.8121 21.6662 29.8102C21.497 29.8083 21.3298 29.7635 21.1744 29.6783C21.019 29.5932 20.8784 29.4694 20.7608 29.3142L14.3906 21.1892C14.1518 20.8844 14.0176 20.4712 14.0176 20.0403C14.0176 19.6094 14.1518 19.1962 14.3906 18.8914L20.7608 10.7664C20.9998 10.4618 21.3238 10.2906 21.6616 10.2906C21.9994 10.2906 22.3234 10.4618 22.5623 10.7664ZM14.9181 10.7664C15.1569 11.0712 15.2911 11.4844 15.2911 11.9153C15.2911 12.3462 15.1569 12.7594 14.9181 13.0642L9.44859 20.0403L14.9181 27.0164C15.1501 27.3229 15.2786 27.7334 15.2757 28.1595C15.2728 28.5855 15.1388 28.9931 14.9025 29.2944C14.6663 29.5957 14.3468 29.7666 14.0127 29.7703C13.6787 29.774 13.3569 29.6102 13.1166 29.3142L6.74634 21.1892C6.50749 20.8844 6.37332 20.4712 6.37332 20.0403C6.37332 19.6094 6.50749 19.1962 6.74634 18.8914L13.1166 10.7664C13.3555 10.4618 13.6795 10.2906 14.0173 10.2906C14.3552 10.2906 14.6792 10.4618 14.9181 10.7664Z" fill="black"/>
</g>
</svg>
