<svg width="32" height="32" viewBox="0 0 32 32" fill="none" xmlns="http://www.w3.org/2000/svg">
<g id="Group">
<path id="Vector" fill-rule="evenodd" clip-rule="evenodd" d="M8.59195 23.5826C8.35311 23.3385 8.21893 23.0076 8.21893 22.6626C8.21893 22.3175 8.35311 21.9866 8.59195 21.7426L14.0614 16.1562L8.59195 10.5698C8.47027 10.4498 8.37321 10.3062 8.30644 10.1474C8.23967 9.98868 8.20452 9.81793 8.20305 9.64515C8.20158 9.47237 8.23382 9.30102 8.29788 9.1411C8.36194 8.98117 8.45654 8.83588 8.57616 8.7137C8.69579 8.59152 8.83804 8.4949 8.99461 8.42947C9.15119 8.36404 9.31895 8.33111 9.48812 8.33262C9.65729 8.33412 9.82447 8.37002 9.9799 8.43822C10.1353 8.50641 10.2759 8.60555 10.3935 8.72983L16.7637 15.2362C17.0025 15.4802 17.1367 15.8111 17.1367 16.1562C17.1367 16.5013 17.0025 16.8322 16.7637 17.0762L10.3935 23.5826C10.1545 23.8265 9.83054 23.9636 9.4927 23.9636C9.15487 23.9636 8.83087 23.8265 8.59195 23.5826ZM16.2362 23.5826C15.9974 23.3385 15.8632 23.0076 15.8632 22.6626C15.8632 22.3175 15.9974 21.9866 16.2362 21.7426L21.7057 16.1562L16.2362 10.5698C16.0042 10.3244 15.8757 9.9957 15.8786 9.65452C15.8815 9.31333 16.0155 8.98695 16.2517 8.74568C16.488 8.50442 16.8075 8.36756 17.1416 8.3646C17.4756 8.36163 17.7974 8.49279 18.0377 8.72983L24.408 15.2362C24.6468 15.4802 24.781 15.8111 24.781 16.1562C24.781 16.5013 24.6468 16.8322 24.408 17.0762L18.0377 23.5826C17.7988 23.8265 17.4748 23.9636 17.137 23.9636C16.7991 23.9636 16.4751 23.8265 16.2362 23.5826Z" fill="black"/>
</g>
</svg>
