<svg width="358" height="107" viewBox="0 0 358 107" fill="none" xmlns="http://www.w3.org/2000/svg">
<g clip-path="url(#clip0_1169_113)">
<path d="M229.606 86.9568C225.867 86.9568 222.779 84.6386 221.48 78.4875V78.4064C215.952 77.6066 212.945 72.2515 212.945 47.7205C212.945 20.8676 216.522 16.9535 223.103 16.9535C229.684 16.9535 233.261 20.8676 233.261 47.7205C233.261 69.5942 230.915 76.2614 226.474 77.9899C226.009 78.1705 225.955 78.8929 226.39 79.1545C227.335 79.7221 228.384 80.0059 229.603 80.0059C230.166 80.0059 230.656 79.969 231.145 79.8916C231.489 79.8364 231.796 80.1349 231.796 80.5256V86.1902C231.796 86.5072 231.587 86.7763 231.307 86.8242C230.764 86.9163 230.16 86.9642 229.603 86.9642L229.606 86.9568ZM223.106 23.5027C221.807 23.5027 221.318 27.2583 221.318 47.7168C221.318 68.1753 221.804 71.9309 223.106 71.9309C224.487 71.9309 224.895 68.1753 224.895 47.7168C224.895 27.2583 224.49 23.5027 223.106 23.5027Z" fill="black"/>
<path d="M229.606 87.4839C226.579 87.4839 222.658 85.9802 221.068 78.8708C214.646 77.6803 212.466 69.6901 212.466 47.7205C212.466 21.1072 215.898 16.4265 223.106 16.4265C226.1 16.4265 229.137 17.1083 231.098 22.058C232.906 26.6244 233.747 34.7769 233.747 47.7205C233.747 68.1348 231.82 76.4715 226.64 78.4838C226.592 78.5022 226.582 78.5464 226.579 78.5796C226.579 78.6165 226.582 78.6644 226.626 78.6902C227.507 79.2209 228.482 79.4752 229.606 79.4752C230.132 79.4752 230.602 79.4383 231.077 79.3646C231.378 79.3167 231.681 79.4162 231.914 79.6337C232.147 79.8548 232.282 80.1791 232.282 80.5182V86.1829C232.282 86.7615 231.904 87.248 231.384 87.3365C230.834 87.4286 230.203 87.4802 229.606 87.4802V87.4839ZM221.962 78.4248C223.1 83.7357 225.671 86.4298 229.606 86.4298C230.156 86.4298 230.737 86.3819 231.236 86.2971C231.283 86.2898 231.317 86.2419 231.317 86.1866V80.5219C231.317 80.474 231.293 80.4445 231.283 80.4334C231.263 80.415 231.243 80.4076 231.216 80.4113C230.693 80.4924 230.18 80.533 229.606 80.533C228.314 80.533 227.19 80.2344 226.16 79.6153C225.789 79.3904 225.58 78.9629 225.614 78.4948C225.648 78.0305 225.918 77.6435 226.312 77.4887C230.193 75.9813 232.775 70.3387 232.775 47.7168C232.775 22.0028 229.653 17.4769 223.1 17.4769C216.546 17.4769 213.424 22.0028 213.424 47.7168C213.424 73.4309 217.261 77.2639 221.537 77.8794L221.956 77.9383V78.4211L221.962 78.4248ZM223.106 72.4579C221.885 72.4579 221.497 70.6557 221.244 67.5414C220.957 64.0254 220.835 58.0953 220.835 47.7168C220.835 37.3383 220.957 31.4083 221.244 27.8923C221.497 24.778 221.881 22.9757 223.106 22.9757C224.331 22.9757 224.757 24.778 225 27.8923C225.266 31.3124 225.378 37.0545 225.378 47.7168C225.378 58.3791 225.27 64.1212 225 67.5414C224.757 70.6557 224.369 72.4579 223.106 72.4579ZM223.106 24.0335C221.902 24.0335 221.8 36.2585 221.8 47.7205C221.8 59.1826 221.902 71.4075 223.106 71.4075C224.311 71.4075 224.412 60.6789 224.412 47.7205C224.412 34.7621 224.315 24.0335 223.106 24.0335Z" fill="black"/>
<path d="M237.57 13.0321H244.475C244.789 13.0321 245.045 13.3195 245.045 13.6697V48.992C245.045 65.1347 245.616 67.6114 246.834 67.6114C248.052 67.6114 248.622 65.1347 248.622 48.992V13.6734C248.622 13.3195 248.879 13.0358 249.193 13.0358H256.097C256.411 13.0358 256.668 13.3232 256.668 13.6734V52.9908C256.668 70.0107 253.823 74.168 246.834 74.168C239.845 74.168 237 70.0107 237 52.9908V13.6734C237 13.3195 237.256 13.0358 237.57 13.0358V13.0321Z" fill="black"/>
<path d="M246.834 74.695C239.025 74.695 236.517 69.421 236.517 52.9908V13.6734C236.517 13.0284 236.99 12.5051 237.57 12.5051H244.475C245.055 12.5051 245.528 13.0284 245.528 13.6734V48.9957C245.528 58.3938 245.686 67.0881 246.834 67.0881C247.981 67.0881 248.14 58.3938 248.14 48.9957V13.6734C248.14 13.0284 248.612 12.5051 249.193 12.5051H256.097C256.678 12.5051 257.15 13.0284 257.15 13.6734V52.9908C257.15 69.421 254.643 74.695 246.834 74.695ZM237.57 13.5591C237.523 13.5591 237.482 13.6107 237.482 13.6697V52.9871C237.482 61.4602 238.171 66.6163 239.72 69.7048C241.1 72.4616 243.226 73.6373 246.834 73.6373C250.441 73.6373 252.567 72.4616 253.948 69.7048C255.493 66.6126 256.185 61.4565 256.185 52.9871V13.6734C256.185 13.6107 256.144 13.5628 256.097 13.5628H249.193C249.145 13.5628 249.105 13.6144 249.105 13.6734V48.9957C249.105 66.4099 248.447 68.1421 246.834 68.1421C245.221 68.1421 244.563 66.4099 244.563 48.9957V13.6734C244.563 13.6107 244.522 13.5628 244.475 13.5628H237.57V13.5591Z" fill="black"/>
<path d="M269.346 16.9498C275.93 16.9498 279.504 20.8639 279.504 47.7168C279.504 74.566 275.927 78.4837 269.346 78.4837C262.762 78.4837 259.188 74.566 259.188 47.7168C259.188 20.8639 262.766 16.9498 269.346 16.9498ZM269.346 23.5027C268.047 23.5027 267.558 27.2583 267.558 47.7168C267.558 68.1752 268.044 71.9308 269.346 71.9308C270.726 71.9308 271.135 68.1752 271.135 47.7168C271.135 27.2583 270.73 23.5027 269.346 23.5027Z" fill="black"/>
<path d="M269.346 79.0145C266.353 79.0145 263.316 78.3327 261.355 73.383C259.546 68.8166 258.706 60.6642 258.706 47.7205C258.706 21.1108 262.138 16.4265 269.346 16.4265C272.34 16.4265 275.377 17.1083 277.337 22.058C279.146 26.6244 279.987 34.7769 279.987 47.7205C279.987 74.3302 276.554 79.0145 269.346 79.0145ZM269.346 17.4806C262.789 17.4806 259.671 22.0064 259.671 47.7205C259.671 73.4346 262.793 77.9604 269.346 77.9604C275.9 77.9604 279.021 73.4346 279.021 47.7205C279.021 22.0064 275.9 17.4806 269.346 17.4806ZM269.346 72.4579C268.125 72.4579 267.736 70.6557 267.483 67.5414C267.196 64.0254 267.075 58.0953 267.075 47.7168C267.075 37.3383 267.196 31.4083 267.483 27.8923C267.736 24.778 268.121 22.9757 269.346 22.9757C270.571 22.9757 270.996 24.778 271.239 27.8923C271.506 31.3124 271.617 37.0545 271.617 47.7168C271.617 58.3791 271.509 64.1212 271.239 67.5414C270.996 70.6557 270.608 72.4579 269.346 72.4579ZM269.346 24.0335C268.141 24.0335 268.04 36.2585 268.04 47.7205C268.04 59.1789 268.141 71.4075 269.346 71.4075C270.551 71.4075 270.652 60.6789 270.652 47.7205C270.652 34.7621 270.554 24.0335 269.346 24.0335Z" fill="black"/>
<path d="M282.916 21.2361H289.901C290.215 21.2361 290.472 21.5236 290.472 21.8737V42.8777C290.472 43.6479 291.46 43.7622 291.599 43.0103L295.578 21.7447C295.631 21.4499 295.864 21.2361 296.134 21.2361H302.276C302.641 21.2361 302.911 21.612 302.833 22.0101L297.565 49.0731C297.548 49.1578 297.548 49.25 297.565 49.3347L303.255 81.2037C303.326 81.598 303.056 81.9703 302.695 81.9703H296.141C295.868 81.9703 295.631 81.7528 295.581 81.4506L291.599 58.0805C291.471 57.3176 290.468 57.4245 290.468 58.2022V81.3327C290.468 81.6865 290.212 81.9703 289.898 81.9703H282.912C282.599 81.9703 282.342 81.6828 282.342 81.3327V21.8774C282.342 21.5236 282.599 21.2398 282.912 21.2398L282.916 21.2361Z" fill="black"/>
<path d="M302.698 82.4973H296.144C295.638 82.4973 295.203 82.0993 295.108 81.5464L291.126 58.1764C291.116 58.1248 291.106 58.0805 291.035 58.0879C290.954 58.0953 290.954 58.1616 290.954 58.1985V81.329C290.954 81.9739 290.482 82.4973 289.901 82.4973H282.916C282.335 82.4973 281.863 81.9739 281.863 81.329V21.8774C281.863 21.2324 282.335 20.7091 282.916 20.7091H289.901C290.482 20.7091 290.954 21.2324 290.954 21.8774V42.8813C290.954 42.9182 290.954 42.9845 291.035 42.9919C291.103 42.9993 291.12 42.955 291.126 42.9071L295.105 21.6415C295.206 21.1034 295.638 20.7128 296.138 20.7128H302.28C302.597 20.7128 302.894 20.8676 303.093 21.1403C303.299 21.4167 303.376 21.7779 303.309 22.128L298.041 49.191C298.041 49.191 298.038 49.2242 298.041 49.2426L303.731 81.1115C303.791 81.458 303.71 81.8155 303.505 82.0882C303.305 82.3536 303.008 82.5084 302.698 82.5084V82.4973ZM291.052 57.0338C291.558 57.0338 291.983 57.4171 292.078 57.9847L296.06 81.3548C296.07 81.4064 296.104 81.4432 296.144 81.4432H302.698C302.722 81.4432 302.745 81.4322 302.762 81.4101C302.776 81.3953 302.793 81.3585 302.786 81.3069L297.096 49.4379C297.069 49.2794 297.069 49.121 297.099 48.9662L302.367 21.9032C302.377 21.8516 302.357 21.8147 302.347 21.8C302.33 21.7779 302.31 21.7631 302.283 21.7631H296.141C296.101 21.7631 296.067 21.8 296.057 21.8479L292.078 43.1135C291.967 43.7106 291.487 44.0976 290.944 44.0386C290.394 43.9796 289.996 43.4895 289.996 42.8776V21.8737C289.996 21.8111 289.955 21.7631 289.908 21.7631H282.922C282.875 21.7631 282.835 21.8147 282.835 21.8737V81.329C282.835 81.3916 282.875 81.4395 282.922 81.4395H289.908C289.955 81.4395 289.996 81.3879 289.996 81.329V58.1985C289.996 57.583 290.397 57.0928 290.954 57.0375C290.988 57.0375 291.022 57.0338 291.055 57.0338H291.052Z" fill="black"/>
<path d="M305.999 10.4449H312.984C313.298 10.4449 313.554 10.7324 313.554 11.0825V32.0864C313.554 32.8567 314.543 32.971 314.682 32.2191L318.66 10.9535C318.714 10.6586 318.947 10.4449 319.217 10.4449H325.359C325.723 10.4449 325.993 10.8208 325.916 11.2189L320.648 38.2818C320.631 38.3666 320.631 38.4587 320.648 38.5435L326.338 70.4124C326.409 70.8068 326.139 71.179 325.777 71.179H319.224C318.951 71.179 318.714 70.9616 318.664 70.6594L314.682 47.2893C314.553 46.5264 313.551 46.6333 313.551 47.4109V70.5414C313.551 70.8953 313.295 71.179 312.981 71.179H305.995C305.681 71.179 305.425 70.8916 305.425 70.5414V11.0825C305.425 10.7287 305.681 10.4449 305.995 10.4449H305.999Z" fill="black"/>
<path d="M325.778 71.706H319.224C318.718 71.706 318.282 71.308 318.188 70.7552L314.206 47.3851C314.196 47.3335 314.182 47.2893 314.115 47.2966C314.034 47.304 314.034 47.3704 314.034 47.4072V70.5377C314.034 71.1827 313.561 71.706 312.981 71.706H305.995C305.415 71.706 304.942 71.1827 304.942 70.5377V11.0824C304.942 10.4375 305.415 9.91412 305.995 9.91412H312.981C313.561 9.91412 314.034 10.4375 314.034 11.0824V32.0864C314.034 32.1232 314.034 32.1896 314.115 32.197C314.186 32.2043 314.199 32.1601 314.206 32.1122L318.185 10.8466C318.286 10.3085 318.718 9.91781 319.217 9.91781H325.359C325.676 9.91781 325.973 10.0726 326.172 10.3453C326.378 10.6217 326.456 10.9829 326.388 11.3331L321.121 38.396C321.121 38.396 321.117 38.4292 321.121 38.4476L326.81 70.3166C326.871 70.663 326.79 71.0205 326.584 71.2933C326.385 71.5586 326.088 71.7134 325.778 71.7134V71.706ZM314.132 46.2389C314.638 46.2389 315.063 46.6222 315.158 47.1898L319.14 70.5598C319.15 70.6114 319.184 70.6483 319.224 70.6483H325.778C325.801 70.6483 325.825 70.6372 325.842 70.6151C325.855 70.6004 325.872 70.5635 325.865 70.5119L320.176 38.643C320.149 38.4845 320.149 38.326 320.179 38.1712L325.447 11.1082C325.457 11.0566 325.437 11.0198 325.427 11.005C325.41 10.9829 325.39 10.9682 325.363 10.9682H319.221C319.18 10.9682 319.146 11.005 319.136 11.053L315.158 32.3186C315.046 32.9156 314.57 33.3026 314.024 33.2436C313.474 33.1847 313.075 32.6945 313.075 32.0827V11.0824C313.075 11.0198 313.035 10.9719 312.988 10.9719H306.002C305.955 10.9719 305.914 11.0235 305.914 11.0824V70.5377C305.914 70.6004 305.955 70.6483 306.002 70.6483H312.988C313.035 70.6483 313.075 70.5967 313.075 70.5377V47.4072C313.075 46.788 313.477 46.3015 314.034 46.2463C314.068 46.2463 314.101 46.2426 314.135 46.2426L314.132 46.2389Z" fill="black"/>
<path d="M343.909 17.5064L348.205 76.9617C348.232 77.3339 347.969 77.6508 347.639 77.6508H340.68C340.373 77.6508 340.12 77.3781 340.11 77.0317L339.823 67.6372C339.813 67.2944 339.56 67.018 339.252 67.018H336.694C336.387 67.018 336.138 67.2871 336.124 67.6298L335.763 77.0354C335.75 77.3781 335.5 77.6472 335.193 77.6472H328.555C328.221 77.6472 327.961 77.3302 327.988 76.958L332.284 17.5027C332.307 17.171 332.554 16.9167 332.851 16.9167H343.339C343.636 16.9167 343.882 17.171 343.906 17.5027L343.909 17.5064ZM336.985 59.8349H338.885C339.209 59.8349 339.465 59.5327 339.455 59.1715L338.584 32.665C338.534 31.8763 337.498 31.8763 337.447 32.665L336.418 59.1678C336.404 59.5327 336.664 59.8349 336.988 59.8349H336.985Z" fill="black"/>
<path d="M347.635 78.1815H340.677C340.106 78.1815 339.644 77.6877 339.624 77.0538L339.337 67.6593C339.337 67.6003 339.296 67.5524 339.249 67.5524H336.691C336.644 67.5524 336.607 67.6003 336.603 67.6593L336.242 77.0648C336.219 77.6914 335.756 78.1815 335.189 78.1815H328.551C328.261 78.1815 327.981 78.0489 327.782 77.813C327.58 77.5734 327.478 77.2491 327.502 76.9211L331.798 17.4658C331.842 16.8651 332.304 16.3933 332.847 16.3933H343.336C343.883 16.3933 344.342 16.8651 344.385 17.4658L348.681 76.9211C348.705 77.2491 348.604 77.5734 348.401 77.813C348.202 78.0489 347.922 78.1815 347.632 78.1815H347.635ZM336.691 66.4983H339.249C339.819 66.4983 340.282 66.9922 340.302 67.6261L340.589 77.0206C340.589 77.0796 340.629 77.1275 340.677 77.1275H347.635C347.659 77.1275 347.679 77.1164 347.696 77.098C347.709 77.0832 347.726 77.0538 347.723 77.0059L343.427 17.5506C343.424 17.4916 343.383 17.4474 343.339 17.4474H332.851C332.807 17.4474 332.766 17.4916 332.763 17.5506L328.467 77.0059C328.464 77.0538 328.484 77.0832 328.494 77.098C328.511 77.1164 328.531 77.1275 328.555 77.1275H335.193C335.24 77.1275 335.277 77.0796 335.281 77.0206L335.642 67.6151C335.665 66.9885 336.128 66.4983 336.695 66.4983H336.691ZM338.885 60.3619H336.985C336.698 60.3619 336.431 60.2366 336.229 60.0081C336.026 59.7796 335.918 59.4626 335.932 59.1457L336.961 32.6429C337.002 32.0016 337.444 31.5446 338.014 31.5446C338.581 31.5446 339.023 32.0016 339.064 32.6282L339.938 59.153C339.948 59.47 339.84 59.7833 339.637 60.0118C339.438 60.2366 339.172 60.3619 338.885 60.3619ZM338.014 32.5987C337.94 32.5987 337.93 32.6466 337.926 32.7019L336.897 59.1899C336.897 59.2378 336.914 59.2673 336.927 59.2784C336.944 59.2968 336.965 59.3078 336.985 59.3078H338.885C338.905 59.3078 338.925 59.2968 338.942 59.2784C338.956 59.2636 338.972 59.2341 338.972 59.1899L338.102 32.6834C338.102 32.6466 338.088 32.5987 338.014 32.5987Z" fill="black"/>
<path d="M352.184 6.28754C355.464 6.28754 357.226 8.55046 357.226 13.8577C357.226 19.1464 355.464 21.4278 352.184 21.4278C348.843 21.4278 347.045 19.1464 347.045 13.8577C347.045 8.54678 348.843 6.28754 352.184 6.28754ZM352.184 7.86127C349.765 7.86127 348.843 9.90675 348.843 13.8613C348.843 17.8159 349.765 19.8577 352.184 19.8577C354.685 19.8577 355.424 17.8122 355.424 13.8613C355.424 9.91043 354.685 7.86127 352.184 7.86127ZM352.245 9.05907C353.345 9.05907 354.287 9.9436 354.287 12.8957V13.3859H352.626V12.9916C352.626 11.2409 352.488 10.6697 352.245 10.6697C351.945 10.6697 351.843 11.3773 351.843 13.854C351.843 16.3307 351.945 17.0199 352.245 17.0199C352.485 17.0199 352.626 16.4707 352.626 14.698V14.5211H354.287V14.7975C354.287 17.768 353.345 18.6526 352.245 18.6526C350.926 18.6526 349.984 17.9265 349.984 13.854C349.984 9.78144 350.926 9.05538 352.245 9.05538V9.05907Z" fill="black"/>
<path d="M73.4367 40.0433C75.5087 39.9254 77.5808 39.8074 79.6494 39.6895C82.9499 39.5015 86.2503 39.3136 89.5507 39.1256C90.3067 39.0814 91.0626 39.0409 91.8185 38.9966C92.7094 38.945 93.5598 38.6207 94.2044 37.9168C94.7882 37.2792 95.2303 36.2288 95.1932 35.3111C95.1561 34.3934 94.8692 33.3688 94.2044 32.7054C93.5396 32.042 92.7162 31.5739 91.8185 31.6255C89.7465 31.7435 87.6744 31.8614 85.6057 31.9793C82.3053 32.1673 79.0049 32.3553 75.7044 32.5432C74.9485 32.5875 74.1926 32.628 73.4367 32.6722C72.5458 32.7238 71.6953 33.0481 71.0508 33.7521C70.4669 34.3897 70.0249 35.4401 70.062 36.3578C70.0991 37.2755 70.386 38.3001 71.0508 38.9635C71.7156 39.6269 72.539 40.0949 73.4367 40.0433Z" fill="black"/>
<path d="M29.6671 48.0816C31.5434 45.8223 33.3354 43.4783 35.0936 41.1085C38.7248 36.2104 42.2513 31.1575 45.2142 25.7435C46.635 23.1488 47.9106 20.44 48.8589 17.5947C49.6789 15.1254 50.1143 12.4792 49.6587 9.87349C49.3718 8.23342 48.4911 6.84397 47.5596 5.56139C46.4595 4.05032 44.978 2.99625 43.3244 2.3476C40.2265 1.13505 36.7843 2.27388 33.98 3.81813C31.1756 5.36238 28.432 7.77641 26.0022 10.161C23.9741 12.1512 22.0741 14.2851 20.191 16.4338C14.255 23.1967 8.83527 30.4941 5.01514 38.9377C2.96671 43.4673 1.30975 48.2437 0.320971 53.1824C-0.667809 58.121 -1.20438 63.1628 -0.566568 68.1347C-0.0299954 72.3141 1.70796 76.1765 4.90715 78.6495C8.76103 81.6238 14.0323 81.0083 18.2877 79.6004C19.5094 79.195 20.704 78.7085 21.8851 78.1778C22.0302 78.1114 22.1754 78.0451 22.3238 77.9787L22.7254 77.7945C23.2822 77.5328 23.262 77.5475 22.6681 77.835C22.8402 77.7982 23.0156 77.706 23.181 77.6434C23.5252 77.5107 23.8661 77.3743 24.2069 77.2269C25.8571 76.523 27.4736 75.7306 29.0327 74.8129C32.242 72.9222 35.2083 70.5671 38.0161 68.0351C44.9544 61.7844 50.769 54.1259 56.0773 46.2351C57.5993 43.9722 59.0707 41.6724 60.5083 39.3431C61.4464 37.821 60.8896 35.6465 59.641 34.5925C58.3923 33.5384 56.3574 33.5237 55.2134 34.8799C53.958 36.3652 52.8275 37.9979 51.7476 39.6343C49.6891 42.7486 47.9477 46.1172 46.7598 49.7438C45.3897 53.9342 45.1535 58.4896 46.8881 62.5879C48.2211 65.7354 50.796 68.1383 54.0593 68.1678C56.5903 68.1899 59.0504 66.8926 61.1157 65.4C63.7783 63.4724 66.1845 61.1063 68.4388 58.6444C73.9597 52.6185 78.8125 45.8813 83.5708 39.1404C87.8701 33.0482 91.9973 26.816 96.2528 20.6832C96.4519 20.3957 96.651 20.1119 96.8501 19.8282C97.0661 19.5186 97.8524 18.4092 96.9885 19.6291C97.5622 18.8183 97.9773 18.0959 97.9773 17.0235C97.9773 16.1205 97.6094 15.0406 96.9885 14.4178C95.6352 13.0615 93.5598 12.9693 92.2201 14.4178C88.5484 18.3797 85.2649 22.8392 82.2007 27.3614C79.5347 31.2976 77.0847 35.4254 75.0362 39.7854C72.8663 44.4071 71.017 49.3531 70.2374 54.4981C69.927 56.5399 69.7245 58.6038 69.7481 60.6751C69.7582 61.3901 69.8224 62.1272 70.0147 62.809C70.4366 64.3054 71.2566 65.5842 72.4749 66.4282C73.9833 67.4713 75.7213 67.5155 77.4289 67.2317C79.3997 66.9037 81.2929 65.8901 83.0173 64.8435C84.8903 63.712 86.7362 62.411 88.3932 60.9331C90.1716 59.3446 91.9062 57.6935 93.6206 56.0202C96.7624 52.9612 99.8232 49.7954 102.739 46.4784C105.874 42.9108 108.921 39.1404 111.378 34.9758C111.854 34.1686 112.303 33.3394 112.704 32.4806C113.369 31.0691 113.312 29.1563 112.178 28.0174C111.746 27.5862 111.246 27.2656 110.69 27.0703C109.974 26.816 108.712 26.9228 108.091 27.4425C103.768 31.0507 100.022 35.3738 97.2011 40.4783C95.0447 44.3813 93.3573 48.7929 93.0604 53.3777C92.8106 57.1922 94.2617 61.4822 97.9773 62.5289C102.395 63.771 106.762 60.3397 110.001 57.5166C112.536 55.3089 114.834 52.7843 117.021 50.175C120.307 46.2499 123.335 42.0741 126.254 37.821C127.074 36.6232 127.884 35.418 128.687 34.2055L122.862 30.4868C122.099 32.1084 121.347 33.7337 120.598 35.3591C118.745 39.3726 116.916 43.3972 115.107 47.4329C112.799 52.5853 110.524 57.7598 108.314 62.9638C106.103 68.1678 103.944 73.4271 101.946 78.7453C100.626 82.2503 99.2326 85.8437 98.4835 89.5587C98.4261 89.8425 98.3755 90.13 98.335 90.4212C98.0684 92.2566 98.6252 93.9998 100.289 94.7664C101.811 95.4667 103.653 94.8586 104.501 93.259C106.991 88.5563 109.627 83.9383 112.333 79.3829C114.726 75.351 117.193 71.3706 119.795 67.5007C120.439 66.5425 121.101 65.5953 121.759 64.6481C120.979 65.7722 121.597 64.8803 121.779 64.6223C121.934 64.4049 122.093 64.1874 122.248 63.9737C122.555 63.5498 122.869 63.126 123.183 62.7058C124.384 61.1026 125.629 59.5326 126.956 58.0547C127.59 57.347 128.245 56.6578 128.93 56.0129C129.085 55.8655 129.244 55.7217 129.402 55.578C129.47 55.519 129.537 55.46 129.601 55.4011C130.077 54.9736 128.876 55.9944 129.247 55.6959C129.541 55.46 129.834 55.2242 130.141 55.0067C130.415 54.8114 130.698 54.6308 130.988 54.4649C131.123 54.3912 131.262 54.3286 131.393 54.2549C130.209 54.9293 130.688 54.5645 131.036 54.4355C131.282 54.3433 131.525 54.2954 131.778 54.2328C130.401 54.5718 131.12 54.288 131.613 54.347C132.416 54.4428 133.448 53.8679 133.999 53.2671C134.582 52.6295 135.024 51.5792 134.987 50.6615C134.9 48.487 133.499 47.2044 131.616 46.9796C130.155 46.8064 128.565 47.5029 127.32 48.2622C125.889 49.1356 124.597 50.3334 123.399 51.5497C120.368 54.6271 117.793 58.2389 115.303 61.8324C112.606 65.7169 110.072 69.7379 107.619 73.8104C105.526 77.2822 103.495 80.7982 101.514 84.3474C100.569 86.0427 99.5701 87.727 98.7096 89.474C98.6961 89.4998 98.6826 89.5219 98.6724 89.5477C100.728 90.4949 102.783 91.4384 104.838 92.3856C105.334 88.9654 106.647 85.6189 107.814 82.4235C108.233 81.2736 108.665 80.1311 109.104 78.9923C109.326 78.4136 108.871 79.593 108.958 79.3682C109.016 79.2208 109.073 79.0734 109.131 78.9259C109.255 78.6053 109.38 78.2847 109.505 77.964C109.745 77.3522 109.988 76.7404 110.231 76.1323C111.26 73.5598 112.316 71.002 113.393 68.4516C115.586 63.2402 117.851 58.0657 120.149 52.9096C122.039 48.6676 123.955 44.4403 125.896 40.2277C126.807 38.2485 127.749 36.2804 128.65 34.2939C128.663 34.2645 128.677 34.2387 128.69 34.2092C129.497 32.4954 129.149 30.133 127.479 29.171C125.808 28.2091 123.969 28.8172 122.865 30.4941C122.089 31.6735 121.303 32.8418 120.507 34.0065C120.129 34.5593 119.747 35.1084 119.366 35.6539C119.224 35.8566 118.654 36.7117 119.194 35.9045C118.995 36.203 118.779 36.4868 118.573 36.778C117.213 38.6724 115.819 40.5409 114.382 42.3616C112.117 45.2326 109.741 48.0189 107.153 50.5472C106.647 51.0411 106.134 51.5239 105.611 51.9919C105.371 52.2057 105.098 52.3974 104.875 52.6332C104.831 52.6775 105.651 51.9883 105.29 52.2831C105.229 52.331 105.172 52.3826 105.111 52.4305C104.98 52.5374 104.848 52.6443 104.716 52.7475C103.893 53.4035 103.039 54.019 102.142 54.5497C101.757 54.7782 101.349 54.9514 100.967 55.1763C101.008 55.1541 101.973 54.734 101.47 54.9404C101.382 54.9772 101.295 55.0141 101.207 55.0509C101.028 55.121 100.849 55.1873 100.667 55.2463C100.356 55.3495 100.043 55.4158 99.7253 55.4858C99.2293 55.5927 100.663 55.3826 100.346 55.3937C100.275 55.3937 100.205 55.4084 100.134 55.4158C99.9987 55.4269 99.8637 55.4306 99.7253 55.4269C99.5971 55.4269 99.4689 55.4084 99.3406 55.4011C98.9492 55.379 100.464 55.6185 100.009 55.4969C99.9514 55.4822 99.8907 55.4711 99.8333 55.4564C99.7186 55.4269 99.6106 55.3863 99.4992 55.3495C98.9728 55.1836 100.498 55.906 99.9413 55.5485C99.8536 55.4932 99.7658 55.4342 99.6781 55.379C99.1786 55.0657 100.421 56.1161 100.056 55.6959C99.9852 55.6148 99.9109 55.5374 99.8401 55.46C99.3777 54.9662 100.316 56.2377 100.12 55.8655C100.005 55.648 99.9008 55.379 99.7726 55.1763C99.7456 55.1357 100.174 56.3188 100.036 55.847C100.016 55.7807 99.9919 55.718 99.9717 55.6554C99.9278 55.5116 99.8907 55.3679 99.8569 55.2242C99.8266 55.0915 99.7996 54.9551 99.776 54.8188C99.7625 54.745 99.7557 54.6677 99.7422 54.5939C99.6578 54.1406 99.8603 55.8139 99.8266 55.2537C99.8063 54.922 99.7793 54.5939 99.7793 54.2622C99.7793 53.9011 99.7928 53.5436 99.8232 53.1861C99.8367 52.9981 99.8705 52.8064 99.8806 52.6185C99.8772 52.7106 99.7186 53.831 99.8063 53.234C99.8198 53.1345 99.8333 53.035 99.8502 52.9391C99.9852 52.073 100.178 51.2217 100.414 50.385C100.545 49.9207 100.687 49.46 100.842 49.003C100.917 48.7855 100.991 48.5718 101.068 48.358C101.106 48.2548 101.143 48.1553 101.18 48.0558C101.413 47.4219 100.788 49.0398 101.041 48.4096C101.433 47.4329 101.862 46.4747 102.331 45.5422C102.837 44.5361 103.383 43.5557 103.971 42.6048C104.288 42.0889 104.615 41.584 104.953 41.0864C105.027 40.9795 105.098 40.8726 105.172 40.7658C105.216 40.7031 105.256 40.6441 105.3 40.5815C105.55 40.2203 104.929 41.068 104.966 41.0532C105.142 40.9795 105.408 40.4414 105.533 40.2756C107.062 38.2264 108.766 36.332 110.615 34.6256C110.855 34.4045 111.098 34.1871 111.341 33.9696C111.449 33.8738 111.557 33.7816 111.665 33.6858C112.296 33.144 111.122 34.1391 111.5 33.8222L106.886 28.784C106.039 30.5826 105 32.2669 103.893 33.8848C103.741 34.106 103.596 34.3382 103.431 34.5482C103.431 34.5482 103.991 33.7669 103.674 34.2018C103.593 34.3124 103.512 34.4229 103.434 34.5372C103.09 35.0126 102.739 35.4807 102.385 35.9451C101.686 36.8554 100.971 37.751 100.242 38.6355C97.3934 42.0815 94.3529 45.3358 91.2313 48.4833C89.0512 50.6799 86.824 52.8286 84.5494 54.9109C84.1951 55.2389 83.8306 55.5559 83.4763 55.8839C84.5258 54.9146 83.4223 55.8802 83.1422 56.0903C82.825 56.3298 82.5044 56.5657 82.1838 56.7979C81.6067 57.2144 81.0195 57.6161 80.4256 58.0031C79.916 58.3348 79.3963 58.648 78.8699 58.9466C78.6809 59.0535 78.4919 59.1566 78.2995 59.2562C78.0262 59.3999 76.9834 59.8495 78.1814 59.3372C77.4694 59.6395 76.7573 59.9306 76.0048 60.0854C75.3433 60.2218 76.3996 60.0375 76.4131 60.0338C76.2916 60.0412 76.1701 60.0596 76.0453 60.067C75.9204 60.0744 75.7955 60.0744 75.6707 60.067C75.6133 60.067 75.5559 60.0559 75.4952 60.0559C74.9957 60.0449 76.5177 60.2623 76.0993 60.1481C75.9271 60.1002 75.7584 60.0486 75.5863 60.0006C75.2488 59.9085 76.5818 60.5645 76.1026 60.2291C76.0284 60.1775 75.9474 60.1223 75.8698 60.0743C75.4918 59.8458 76.6595 60.8483 76.349 60.4761C76.3017 60.4171 76.2444 60.3581 76.1904 60.3029C75.809 59.9122 76.7067 61.1358 76.5548 60.8262C76.5211 60.7599 76.4738 60.7009 76.4401 60.6309C76.4097 60.5682 76.3794 60.4908 76.3456 60.4318C76.1263 60.0707 76.6898 61.4822 76.592 61.0731C76.5616 60.9405 76.511 60.8151 76.4806 60.6825C76.4536 60.5682 76.4502 60.4355 76.4165 60.325C76.3929 60.2476 76.5278 61.6075 76.5177 61.1284C76.5177 61.0768 76.5076 61.0252 76.5076 60.9736C76.4941 59.9527 76.5143 58.9281 76.592 57.9072C76.6122 57.6493 76.6358 57.3913 76.6628 57.1333C76.6763 56.9895 76.6966 56.8458 76.7101 56.7021C76.6055 57.8557 76.619 57.4244 76.6527 57.1665C76.7404 56.5325 76.8383 55.8986 76.953 55.2684C77.1656 54.1332 77.4255 53.0092 77.7292 51.8998C78.0329 50.7905 78.3907 49.6479 78.7787 48.546C78.88 48.2585 78.9812 47.9747 79.0858 47.6909C79.1803 47.4329 79.6258 46.3641 79.1331 47.5509C79.3659 46.9907 79.5853 46.4194 79.8215 45.8629C81.6945 41.455 84.0196 37.2866 86.5742 33.3136C87.1513 32.4143 87.7453 31.5224 88.3459 30.6416C88.626 30.2288 88.9129 29.8197 89.1997 29.4143C89.5001 28.9831 88.9365 29.7939 88.9399 29.7828C88.9635 29.6759 89.1424 29.499 89.2065 29.4106C89.3516 29.2079 89.4967 29.0052 89.6452 28.8025C90.6947 27.3504 91.778 25.9277 92.8883 24.5309C94.1538 22.9351 95.453 21.365 96.8096 19.865C96.8737 19.795 96.9345 19.725 96.9986 19.6586L92.2302 14.4509C88.1198 20.252 84.1951 26.2042 80.1387 32.0531C79.5549 32.8934 78.9711 33.73 78.3839 34.5667C78.2557 34.7473 78.1274 34.9315 77.9992 35.1121C77.9013 35.2485 77.3749 35.993 77.7798 35.4217C78.1848 34.8505 77.655 35.5949 77.5605 35.7313C77.3985 35.9598 77.2365 36.1883 77.0745 36.4131C75.9069 38.0495 74.7291 39.6748 73.5311 41.2891C71.2094 44.4181 68.8268 47.5029 66.3195 50.4624C64.1799 52.987 61.9526 55.449 59.5127 57.6345C59.398 57.7377 59.2799 57.8409 59.1618 57.9441C59.0302 58.0584 58.5003 58.508 59.0673 58.0289C59.6342 57.5498 59.101 57.9994 58.9795 58.0989C58.8378 58.2131 58.6961 58.3274 58.5543 58.4417C58.0718 58.8213 57.5757 59.1861 57.0695 59.5289C56.6105 59.8348 56.1414 60.1223 55.6555 60.3766C55.5441 60.4355 55.4294 60.4908 55.3146 60.5498C54.8186 60.8041 56.2663 60.137 55.7095 60.3692C55.4935 60.4576 55.2775 60.5498 55.0548 60.6235C54.8456 60.6935 54.6363 60.7599 54.4237 60.8115C54.3225 60.8373 54.2179 60.8557 54.1166 60.8778C53.5024 61.0179 55.1223 60.7783 54.6127 60.8078C54.4305 60.8188 54.2482 60.8373 54.066 60.8373C53.9715 60.8373 53.8804 60.8299 53.7859 60.8262C53.1042 60.7967 54.6093 60.9957 54.2887 60.9073C54.1234 60.8631 53.958 60.8336 53.796 60.7783C53.7184 60.7525 53.6239 60.6898 53.5429 60.6788C53.4923 60.6714 54.417 61.1321 54.1841 60.9736C54.1335 60.9405 54.0728 60.922 54.0221 60.8889C53.8737 60.793 53.7285 60.6935 53.5834 60.594C53.1785 60.3176 54.3697 61.3422 53.9951 60.9368C53.9175 60.8557 53.8365 60.782 53.7589 60.6972C53.6442 60.5719 53.5429 60.4355 53.435 60.3065C52.9929 59.7685 53.9648 61.1174 53.4991 60.3987C53.2696 60.0449 53.0637 59.6726 52.8815 59.2893C52.8039 59.1272 52.5035 58.379 52.7803 59.0903C53.057 59.8016 52.7803 59.0535 52.7229 58.8802C52.6014 58.4859 52.5069 58.0842 52.4327 57.6787C52.3652 57.3139 52.3719 56.4662 52.4327 57.8372C52.4226 57.6529 52.3989 57.4687 52.3854 57.2844C52.3584 56.8421 52.3551 56.3962 52.3719 55.9539C52.3888 55.5485 52.4293 55.1505 52.4664 54.7487C52.3281 56.1566 52.4057 55.2647 52.4563 54.9441C52.5002 54.6824 52.5474 54.4207 52.6048 54.159C52.787 53.2893 53.0232 52.4379 53.3033 51.6013C53.3675 51.4133 53.4316 51.2253 53.4991 51.0374C53.5497 50.8937 53.8635 50.0681 53.5902 50.7794C53.3168 51.4907 53.6273 50.6946 53.6948 50.5288C53.7893 50.3003 53.8872 50.0718 53.985 49.847C54.687 48.2585 55.5003 46.729 56.3844 45.2548C56.7725 44.6061 57.1775 43.9685 57.5959 43.3383C57.7748 43.0692 57.9536 42.8039 58.1359 42.5385C58.227 42.4058 58.3181 42.2768 58.4092 42.1442C58.632 41.8198 57.7984 42.9992 58.0886 42.5975C58.146 42.5164 58.2034 42.439 58.2607 42.3579C58.7433 41.6871 59.2394 41.0311 59.7557 40.3898C59.83 40.3014 59.9008 40.2092 59.9751 40.1208L54.6768 35.6576C53.2426 37.9869 51.7679 40.2866 50.2459 42.5496C49.5507 43.5815 48.8791 44.6614 48.1198 45.6381C48.1738 45.568 48.5855 44.982 48.2245 45.4906C48.13 45.6233 48.0355 45.756 47.941 45.885C47.7756 46.1135 47.6136 46.342 47.4483 46.5705C47.0771 47.0865 46.7025 47.5951 46.3245 48.1037C43.6754 51.6676 40.8744 55.1062 37.8608 58.3127C36.5211 59.7353 35.1409 61.1137 33.7134 62.4257C33.3793 62.7316 33.0418 63.0375 32.701 63.3361C32.5457 63.4724 32.3871 63.6125 32.2319 63.7488C32.1441 63.8262 32.053 63.9036 31.9619 63.981C31.4658 64.4122 32.4782 63.5535 32.1745 63.8004C31.4895 64.3606 30.8078 64.9208 30.1058 65.4553C28.8066 66.443 27.4635 67.3681 26.0799 68.2084C25.415 68.6101 24.7435 68.9934 24.0584 69.3546C23.7581 69.513 23.4544 69.6678 23.1506 69.8153C23.0055 69.8853 22.7558 69.9553 22.6343 70.0622C22.5769 70.1138 23.424 69.7047 23.1169 69.8411C23.0089 69.889 22.9009 69.9369 22.7963 69.9848C22.1416 70.2759 21.4734 70.5192 20.8086 70.7809C20.515 70.8951 20.2248 71.0425 19.9379 71.1752C20.6804 70.8251 20.2518 71.0315 20.0898 71.1052C19.7962 71.2342 19.5026 71.3669 19.2056 71.4922C18.6117 71.7465 18.011 71.986 17.4069 72.2072C16.2731 72.6236 15.1189 72.9738 13.9412 73.2207C13.6341 73.2834 13.3067 73.3092 12.9996 73.3902C13.0064 73.3902 13.6914 73.3128 13.3067 73.3386C13.1549 73.3497 13.0064 73.3718 12.8545 73.3866C12.3618 73.4308 11.8691 73.4492 11.373 73.4308C11.1705 73.4234 10.9681 73.4124 10.7656 73.3939C10.6745 73.3866 10.5057 73.3939 10.4315 73.3571C10.4214 73.3534 11.3696 73.5303 10.8398 73.4124C10.4551 73.3276 10.0738 73.2428 9.69581 73.1175C9.50346 73.0549 9.32122 72.9664 9.13224 72.9037C8.86227 72.8116 9.6047 73.1028 9.60132 73.1212C9.60132 73.1212 9.37184 73.0033 9.3381 72.9885C9.00063 72.8079 8.67329 72.5978 8.36282 72.3657C8.3257 72.3362 8.16371 72.1851 8.13671 72.1888C8.12659 72.1888 8.74415 72.7342 8.54842 72.5315C8.41681 72.3951 8.26833 72.2698 8.13671 72.1335C7.88361 71.8718 7.67101 71.5806 7.43478 71.3042C8.17046 72.1666 7.73175 71.7354 7.54615 71.4406C7.45503 71.2932 7.36391 71.1421 7.27955 70.991C7.08044 70.6335 6.91508 70.2649 6.74297 69.889C6.42575 69.1998 7.0062 70.6445 6.82397 70.1101C6.75647 69.9074 6.68223 69.7084 6.61811 69.502C6.4865 69.0855 6.37513 68.6617 6.27727 68.2342C6.18953 67.8509 6.11528 67.4602 6.05117 67.0695C6.01742 66.8668 5.93305 66.5904 5.94992 66.3877C5.94992 66.3766 6.06129 67.427 6.01067 66.8447C6.00055 66.7268 5.98705 66.6125 5.97692 66.4946C5.79132 64.4344 5.88243 62.3557 6.06129 60.2992C6.10853 59.7648 6.1794 59.234 6.22327 58.6996C6.12541 59.868 6.21315 58.8028 6.2469 58.5448C6.28739 58.2426 6.33126 57.9404 6.37851 57.6419C6.55737 56.4809 6.77672 55.3237 7.02645 54.1812C7.51915 51.933 8.14684 49.7216 8.88927 47.5545C9.0715 47.0238 9.26048 46.4931 9.45959 45.9661C9.50008 45.8592 9.5372 45.756 9.5777 45.6491C9.79368 45.0705 9.50683 45.8371 9.47983 45.8997C9.61145 45.5901 9.72956 45.2732 9.85442 44.9599C10.2931 43.8837 10.7622 42.8223 11.2549 41.7756C12.2268 39.708 13.2966 37.6957 14.4474 35.7387C15.0143 34.7731 15.6015 33.8259 16.2089 32.8897C16.5127 32.4217 16.8197 31.9573 17.1302 31.4966C17.2956 31.2497 17.4643 31.0064 17.633 30.7632C17.6972 30.671 17.7613 30.5789 17.822 30.4904C18.1325 30.0482 17.957 30.3688 17.741 30.601C18.47 29.816 19.0572 28.7877 19.7186 27.929C20.4138 27.026 21.1258 26.1378 21.8514 25.2607C23.7007 23.0346 25.631 20.8675 27.5715 18.7409C28.5771 17.6389 29.5996 16.5628 30.6559 15.5197C31.2195 14.9632 31.7898 14.4178 32.3736 13.887C32.6368 13.6475 32.9034 13.4079 33.1734 13.1757C33.3793 12.9951 34.0036 12.4902 33.0688 13.2568C33.224 13.1278 33.3793 12.9988 33.5345 12.8698C34.6954 11.9263 35.9103 11.0455 37.196 10.3194C37.4694 10.1646 37.7427 10.0209 38.0228 9.88086C38.0633 9.86243 38.2321 9.75924 38.259 9.76661C38.2962 9.77766 37.3648 10.1499 37.8035 9.97668C37.9587 9.91403 38.1139 9.844 38.2692 9.78135C38.8496 9.55284 39.4402 9.38699 40.0476 9.258C40.6551 9.12901 39.1567 9.35383 39.6562 9.31328C39.8046 9.30223 39.9498 9.2838 40.0982 9.27643C40.3682 9.26169 40.6416 9.26537 40.9115 9.28748C41.6202 9.34277 40.3682 9.18429 40.5437 9.22483C40.6652 9.25432 40.7867 9.27274 40.9082 9.30223C41.1714 9.36857 41.4582 9.54547 41.7181 9.58233C41.7417 9.58233 40.8542 9.12532 41.2085 9.35382C41.2558 9.38331 41.3064 9.40542 41.3536 9.43122C41.4852 9.50493 41.6101 9.58233 41.735 9.6671C41.8463 9.74081 41.9543 9.82557 42.0623 9.90666C42.2918 10.0688 42.3087 10.3047 41.654 9.56022C41.708 9.62287 41.7788 9.6671 41.8328 9.72607C42.0589 9.95825 42.2783 10.1831 42.4841 10.4374C42.5415 10.5074 42.5955 10.5811 42.6495 10.6511C42.8992 10.9607 42.1534 9.90297 42.366 10.2494C42.4673 10.4153 42.582 10.5774 42.6832 10.747C42.8385 11.0086 42.9667 11.2887 43.1186 11.5541C43.3717 11.9927 42.8722 10.8317 42.9026 10.9755C42.9228 11.0787 42.9768 11.1855 43.0038 11.2887C43.0545 11.4583 43.0848 11.6315 43.1253 11.8047C43.1354 11.8563 43.1388 11.9079 43.1523 11.9595C43.2434 12.3465 43.0646 11.1045 43.0646 11.215C43.0646 11.3256 43.0882 11.4325 43.095 11.5357C43.1253 11.9816 43.1152 12.4276 43.0747 12.8735C43.0646 12.9804 43.0511 13.0873 43.041 13.1942C43.1523 11.7568 43.1523 12.3391 43.0983 12.6856C43.0578 12.9472 43.0106 13.2052 42.9566 13.4595C42.7237 14.5578 42.3863 15.6266 41.9948 16.6696C41.9678 16.7434 41.9374 16.8171 41.9104 16.8908C41.789 17.2262 42.204 16.1721 42.1433 16.29C42.0724 16.4301 42.0218 16.5959 41.9611 16.7434C41.8362 17.0493 41.7046 17.3552 41.573 17.6611C41.3131 18.2544 41.0398 18.8404 40.7563 19.4227C39.4942 22.0137 38.0431 24.4977 36.5211 26.9155C35.7449 28.1501 34.9485 29.3664 34.1318 30.5715C33.7404 31.1502 33.3455 31.7288 32.9439 32.3001C32.7482 32.5802 32.5525 32.8603 32.3534 33.1404C32.1239 33.4684 32.8764 32.4032 32.647 32.7276C32.5963 32.8013 32.5424 32.875 32.4917 32.945C32.3871 33.0888 32.2859 33.2362 32.1813 33.3799C29.9574 36.4868 27.6525 39.5274 25.2531 42.4722C25.1316 42.6233 25.0067 42.7744 24.8818 42.9218C23.6973 44.3481 23.4949 46.74 24.8818 48.1295C26.1743 49.4268 28.3848 49.6516 29.6503 48.1295L29.6671 48.0816Z" fill="black"/>
<path d="M62.8402 29.5948C64.6051 29.5948 66.2958 27.8994 66.2114 25.9129C66.1271 23.9264 64.73 22.231 62.8402 22.231C61.0752 22.231 59.3845 23.9264 59.4689 25.9129C59.5532 27.8994 60.9503 29.5948 62.8402 29.5948Z" fill="black"/>
<path d="M158.529 81.318C158.529 81.318 166.419 90.0823 178.601 87.038C178.601 87.038 184.892 85.2284 188.398 81.3954C188.398 81.3954 179.799 83.2972 177.437 83.5441" fill="#FFB200"/>
<path d="M173.539 88.35C164.11 88.35 158.151 81.8708 158.083 81.7934C157.84 81.5244 157.844 81.0932 158.09 80.8315C158.336 80.5698 158.731 80.5698 158.974 80.8389C159.052 80.9236 166.78 89.2935 178.463 86.3709C178.497 86.3598 182.742 85.1141 186.09 82.5858C183.353 83.1718 179.087 84.0527 177.498 84.2185C177.153 84.2517 176.85 83.979 176.816 83.603C176.782 83.2271 177.035 82.8954 177.38 82.8586C179.681 82.619 188.189 80.7394 188.273 80.7209C188.543 80.662 188.816 80.802 188.948 81.0674C189.08 81.3327 189.036 81.6571 188.84 81.8708C185.256 85.7923 179.023 87.6166 178.76 87.6903C176.924 88.151 175.179 88.3463 173.539 88.3463V88.35Z" fill="black"/>
<path d="M157.455 78.0231C155.542 77.2639 151.796 74.8499 151.796 74.8499C152.866 76.9949 158.61 81.3917 158.61 81.3917C164.644 84.9999 171.909 84.8119 171.909 84.8119C182.033 84.8119 188.59 80.4888 188.59 80.4888L188.006 79.8106C194.432 75.974 196.46 68.8682 196.46 68.8682C189.434 79.4715 176.036 79.6964 176.036 79.6964C158.515 81.5023 149.171 68.8682 149.171 68.8682C149.171 68.8682 149.822 73.0698 152.937 75.5501" fill="#FFB200"/>
<path d="M171.663 85.4973C170.316 85.4973 163.864 85.3131 158.309 81.9924C158.289 81.9813 158.269 81.9666 158.252 81.9519C157.651 81.4912 152.356 77.3965 151.25 75.1778C151.182 75.0414 151.158 74.8867 151.182 74.7429C149.08 72.2146 148.577 69.1409 148.553 68.9861C148.506 68.6802 148.654 68.378 148.911 68.2527C149.171 68.1237 149.474 68.2048 149.653 68.4443C149.744 68.5659 159.011 80.7725 175.976 79.0255C175.993 79.0255 176.009 79.0255 176.023 79.0255C176.155 79.0255 189.198 78.6717 195.954 68.4775C196.133 68.2084 196.467 68.1163 196.74 68.2674C197.013 68.4185 197.148 68.7613 197.057 69.0782C196.973 69.3694 195.029 75.9886 189.005 79.9764L189.049 80.0243C189.177 80.1754 189.238 80.3818 189.215 80.5845C189.188 80.7872 189.08 80.9678 188.918 81.0747C188.644 81.2553 182.094 85.4937 171.913 85.4937C171.886 85.4937 171.801 85.4937 171.666 85.4937L171.663 85.4973ZM158.94 80.813C164.745 84.2701 171.825 84.1337 171.896 84.13C179.9 84.13 185.668 81.3695 187.581 80.3118L187.554 80.2823C187.423 80.1275 187.362 79.9174 187.392 79.7074C187.423 79.4973 187.541 79.3167 187.709 79.2172C190.531 77.5329 192.478 75.1741 193.764 73.1139C186.572 80.0206 176.803 80.3671 176.074 80.3855C174.909 80.5034 173.779 80.5587 172.685 80.5587C161.505 80.5587 154.003 74.7503 150.666 71.4775C151.202 72.6532 152.036 73.9911 153.308 75.0046C153.315 75.0083 153.318 75.012 153.325 75.0193C154.574 75.7822 156.501 76.9174 157.675 77.3855C157.999 77.5145 158.168 77.9051 158.049 78.2589C157.931 78.6127 157.574 78.7933 157.25 78.668C156.656 78.4322 155.907 78.0489 155.141 77.6287C156.548 78.915 158.11 80.1754 158.947 80.8167L158.94 80.813Z" fill="black"/>
<path d="M190.915 75.0268C192.474 74.1644 192.923 75.3732 192.923 75.3732C192.923 75.3732 194.469 79.9138 191.378 80.4335C188.286 80.9531 188.526 76.0219 188.526 76.0219C188.526 76.0219 190.547 74.0759 191.496 76.6705" fill="#FFB200"/>
<path d="M190.936 81.0858C190.267 81.0858 189.694 80.8499 189.221 80.3856C187.838 79.0182 187.963 76.114 187.969 75.9887C187.976 75.8228 188.047 75.6717 188.158 75.5612C188.273 75.4506 189.299 74.4997 190.419 74.7467C190.47 74.6361 190.554 74.5403 190.666 74.4813C191.374 74.0869 192.005 74.0022 192.545 74.2196C193.183 74.4813 193.423 75.0747 193.446 75.141C193.49 75.27 194.381 77.9347 193.446 79.6706C193.038 80.4261 192.373 80.8868 191.469 81.0379C191.287 81.0674 191.108 81.0821 190.939 81.0821L190.936 81.0858ZM189.083 76.3278C189.086 77.1533 189.248 78.7602 189.974 79.4789C190.308 79.8069 190.74 79.9212 191.293 79.829C191.857 79.7332 192.245 79.4789 192.474 79.0514C193.025 78.0305 192.606 76.2061 192.397 75.587C192.4 75.598 192.326 75.4359 192.137 75.3658C191.968 75.3032 191.742 75.3253 191.472 75.4322C191.688 75.6975 191.87 76.0366 192.019 76.4457C192.134 76.759 191.995 77.1165 191.705 77.2418C191.418 77.3671 191.091 77.216 190.976 76.899C190.777 76.3536 190.524 76.0366 190.22 75.9555C189.832 75.8523 189.363 76.1177 189.08 76.3278H189.083Z" fill="black"/>
<path d="M193.163 79.7849C193.163 79.7849 195.539 80.3046 196.254 82.6412C196.966 84.9778 198.394 86.7948 199.818 87.8341C201.245 88.8735 205.521 86.7948 207.185 89.1314C207.185 89.1314 206.473 83.9385 205.285 81.6056C204.097 79.2689 201.481 75.8966 197.202 75.635C197.202 75.635 195.124 75.388 193.311 76.291" fill="#FFB200"/>
<path d="M207.185 89.7395C207.016 89.7395 206.851 89.6547 206.743 89.5036C205.939 88.3795 204.191 88.5343 202.649 88.667C201.363 88.7813 200.25 88.8771 199.507 88.339C197.786 87.0859 196.406 85.081 195.721 82.8328C195.124 80.8721 193.072 80.3893 193.052 80.3856C192.748 80.3156 192.552 79.9949 192.613 79.6632C192.674 79.3315 192.967 79.1178 193.271 79.1841C193.382 79.2099 195.977 79.8033 196.784 82.4458C197.391 84.4397 198.613 86.2161 200.128 87.3218C200.547 87.624 201.569 87.5356 202.558 87.4471C203.79 87.3402 205.238 87.2112 206.392 87.7346C206.095 86.054 205.534 83.3561 204.792 81.8967C203.972 80.2861 201.589 76.5084 197.172 76.2393C197.125 76.2357 195.188 76.0219 193.544 76.8401C193.261 76.9801 192.93 76.8438 192.802 76.5379C192.674 76.2283 192.798 75.8671 193.079 75.7271C195.009 74.7688 197.172 75.0084 197.263 75.0194C202.21 75.318 204.863 79.5121 205.774 81.2996C206.999 83.7063 207.711 88.8181 207.742 89.0319C207.779 89.3083 207.644 89.5773 207.407 89.6879C207.337 89.7211 207.262 89.7358 207.188 89.7358L207.185 89.7395Z" fill="black"/>
<path d="M193.312 77.9716C193.312 77.9716 196.49 77.9679 198.866 80.8242L193.312 77.9716Z" fill="#FFB200"/>
<path d="M198.866 81.436C198.714 81.436 198.562 81.3697 198.451 81.237C196.268 78.6165 193.345 78.5871 193.311 78.5871C193.001 78.5871 192.751 78.3143 192.751 77.9753C192.751 77.6362 193.001 77.3635 193.311 77.3598C193.467 77.3598 196.774 77.3966 199.281 80.4114C199.49 80.662 199.474 81.049 199.244 81.2775C199.136 81.3844 199.001 81.436 198.866 81.436Z" fill="black"/>
<path d="M189.967 80.4704C189.967 80.4704 188.874 84.7825 188.523 88.7739C188.172 92.7654 188.172 93.801 188.172 93.801C188.172 93.801 187.247 97.8441 190.919 98.9387C194.59 100.033 196.254 105.742 196.254 105.742C196.254 105.742 198.394 99.7716 198.63 94.8404C198.63 94.8404 198.39 87.2813 194.826 82.3648L192.687 79.2652L189.967 80.4704Z" fill="#FFB200"/>
<path d="M196.251 106.354C196.251 106.354 196.237 106.354 196.234 106.354C195.998 106.347 195.788 106.173 195.717 105.926C195.701 105.871 194.098 100.52 190.77 99.5283C187.497 98.5517 187.267 95.3489 187.612 93.7236C187.618 93.4177 187.662 92.1536 187.966 88.7149C188.32 84.7198 189.383 80.4851 189.427 80.3082C189.474 80.1239 189.596 79.9765 189.758 79.9028L192.478 78.6976C192.714 78.5944 192.984 78.6755 193.136 78.8966L195.275 81.9962C198.903 87.0012 199.18 94.5013 199.19 94.8182C199.19 94.8366 199.19 94.8551 199.19 94.8698C198.95 99.8416 196.865 105.716 196.777 105.963C196.693 106.199 196.484 106.354 196.254 106.354H196.251ZM190.439 80.9237C190.193 81.952 189.376 85.5269 189.083 88.8329C188.739 92.7138 188.732 93.7899 188.732 93.801C188.732 93.8489 188.725 93.9005 188.715 93.9484C188.715 93.9558 188.516 94.8661 188.722 95.8649C188.985 97.1254 189.771 97.9583 191.064 98.3453C193.764 99.1487 195.424 102.145 196.22 104.014C196.855 101.953 197.904 98.1352 198.066 94.833C198.046 94.3575 197.692 87.3034 194.384 82.7407L192.498 80.006L190.439 80.92V80.9237Z" fill="black"/>
<path d="M153.774 31.1356C153.774 31.1356 148.543 20.7939 151.054 12.9363C151.773 10.6918 153.72 9.22496 155.896 9.30236C159.048 9.41293 164.309 10.7582 170.691 16.8835C170.691 16.8835 156.376 17.7054 153.774 31.1319V31.1356Z" fill="white"/>
<path d="M153.77 31.8395C153.537 31.8395 153.322 31.7031 153.207 31.4783C152.987 31.0434 147.865 20.7681 150.44 12.7078C151.253 10.1647 153.446 8.5173 155.91 8.60575C159.281 8.72369 164.657 10.1684 171.109 16.3601C171.305 16.5481 171.379 16.8466 171.292 17.1194C171.207 17.3884 170.978 17.5764 170.718 17.5911C170.58 17.5985 156.862 18.553 154.398 31.2866C154.341 31.5741 154.128 31.7915 153.865 31.8358C153.834 31.8394 153.801 31.8431 153.77 31.8431V31.8395ZM155.731 10.0026C153.895 10.0026 152.269 11.2593 151.658 13.1685C149.852 18.8147 152.282 25.9536 153.595 29.1343C156.443 19.526 165.534 17.0088 169.152 16.3823C163.489 11.3294 158.842 10.1095 155.873 10.0063C155.826 10.0063 155.778 10.0063 155.731 10.0063V10.0026Z" fill="black"/>
<path d="M191.27 31.1356C191.27 31.1356 196.501 20.7939 193.99 12.9363C193.271 10.6918 191.324 9.22496 189.147 9.30236C185.995 9.41293 180.734 10.7582 174.353 16.8835C174.353 16.8835 188.668 17.7054 191.27 31.1319V31.1356Z" fill="white"/>
<path d="M191.27 31.8395C191.239 31.8395 191.206 31.8395 191.175 31.8321C190.909 31.7879 190.696 31.5704 190.642 31.283C188.179 18.5494 174.46 17.5985 174.322 17.5875C174.062 17.5727 173.836 17.3848 173.748 17.1157C173.664 16.8467 173.735 16.5481 173.931 16.3565C180.383 10.1611 185.759 8.72003 189.13 8.60209C191.594 8.51732 193.787 10.1648 194.601 12.7041C197.175 20.7644 192.056 31.0397 191.837 31.4746C191.722 31.6994 191.506 31.8358 191.273 31.8358L191.27 31.8395ZM175.891 16.3823C179.509 17.0088 188.6 19.5261 191.449 29.1343C192.761 25.9537 195.191 18.8147 193.386 13.1685C192.761 11.2115 191.06 9.93995 189.171 10.0063C186.201 10.1095 181.554 11.3294 175.891 16.3823Z" fill="black"/>
<path d="M173.458 15.94C180.937 15.94 186.464 23.0383 189.957 29.4917C192.799 34.7473 196.126 39.7191 198.495 45.2917C199.723 48.1812 200.77 51.207 201.289 54.3508C201.536 55.8434 201.671 57.3729 201.59 58.8914C201.542 59.8054 200.614 62.1457 200.813 62.8644L199.889 59.5142L198.32 68.1495L197.159 64.7735L195.208 70.9431L194.331 68.0426L193.943 70.8878C193.943 70.8878 189.454 79.3425 173.462 79.4752H172.176C156.183 79.3425 151.695 70.8878 151.695 70.8878L151.307 68.0426L150.43 70.9431L148.479 64.7735L147.318 68.1495L145.749 59.5142L144.824 62.8644C142.516 56.6505 145.31 49.2021 147.878 43.6258C149.539 40.025 151.513 36.6122 153.494 33.2141C155.36 30.0151 157.014 26.5912 159.302 23.7275C162.308 19.9646 167.323 15.94 172.173 15.94H173.462H173.458Z" fill="white"/>
<path d="M172.169 80.1754C155.991 80.039 151.324 71.5955 151.135 71.238C151.104 71.1827 151.081 71.12 151.067 71.0574L151.037 71.1606C150.949 71.448 150.706 71.6397 150.429 71.6434C150.149 71.6544 149.906 71.4554 149.819 71.1716L148.452 66.8448L147.919 68.3964C147.817 68.6912 147.551 68.8755 147.264 68.8497C146.977 68.8239 146.741 68.5954 146.687 68.2858L145.621 62.4111L145.442 63.0634C145.364 63.3472 145.128 63.5499 144.854 63.561C144.581 63.5757 144.331 63.3988 144.23 63.1224C141.834 56.6727 144.615 49.1431 147.308 43.3052C149.039 39.5533 151.118 35.982 152.957 32.8309C153.443 31.9979 153.922 31.1318 154.388 30.2952C155.721 27.8996 157.098 25.4192 158.822 23.2595C161.924 19.3786 167.06 15.2324 172.179 15.2324H173.468C177.818 15.2324 184.308 17.6427 190.521 29.1306C191.459 30.8628 192.468 32.6024 193.446 34.2793C195.434 37.6958 197.486 41.2265 199.089 44.9895C200.56 48.4465 201.461 51.3802 201.93 54.2218C202.214 55.9429 202.315 57.4835 202.237 58.9245C202.214 59.3889 202.038 60.0228 201.836 60.7563C201.667 61.3644 201.387 62.3853 201.434 62.6654C201.532 63.0155 201.363 63.3804 201.056 63.5167C200.746 63.6531 200.391 63.4983 200.243 63.174C200.236 63.1592 200.229 63.1482 200.206 63.0634C200.199 63.0376 200.192 63.0118 200.186 62.986C200.155 62.8791 200.105 62.7022 200.024 62.4111L198.957 68.2858C198.9 68.5917 198.667 68.8239 198.38 68.8497C198.093 68.8755 197.827 68.6912 197.725 68.3964L197.192 66.8448L195.826 71.1716C195.734 71.4554 195.495 71.6544 195.215 71.6434C194.938 71.6434 194.695 71.448 194.607 71.1606L194.577 71.0574C194.563 71.12 194.54 71.1827 194.509 71.238C194.317 71.5991 189.653 80.039 173.478 80.1754H172.186H172.169ZM152.306 70.6335C152.883 71.566 157.739 78.6496 172.176 78.7712H173.458C181.503 78.7049 186.498 76.4604 189.269 74.5918C191.87 72.8338 193.055 71.0721 193.322 70.6335L193.689 67.9357C193.733 67.6151 193.973 67.3681 194.27 67.3387C194.567 67.3129 194.84 67.5082 194.935 67.8178L195.215 68.7428L196.544 64.5376C196.632 64.2575 196.872 64.0696 197.142 64.0659C197.425 64.0659 197.658 64.2428 197.752 64.5229L198.12 65.5954L199.251 59.3742C199.308 59.0572 199.555 58.825 199.852 58.8103C200.142 58.7882 200.412 59.0019 200.499 59.3078C200.499 59.3078 200.58 59.5953 200.692 60.0044C200.817 59.5437 200.931 59.0867 200.945 58.8471C201.016 57.5167 200.921 56.0867 200.655 54.4724C200.206 51.7525 199.335 48.9293 197.911 45.5829C196.345 41.901 194.314 38.4108 192.35 35.0348C191.368 33.3468 190.352 31.5999 189.404 29.8456C186.144 23.8197 180.734 16.6366 173.458 16.6366H172.169C167.478 16.6366 162.565 20.7017 159.784 24.1809C158.13 26.2485 156.784 28.6736 155.481 31.0213C155.012 31.8652 154.526 32.7387 154.034 33.5827C152.215 36.7044 150.149 40.2425 148.449 43.9317C146.187 48.8372 143.852 54.9663 144.824 60.4061L145.128 59.3042C145.212 58.9946 145.479 58.7845 145.776 58.8066C146.069 58.8213 146.319 59.0535 146.376 59.3705L147.507 65.5917L147.875 64.5192C147.969 64.2428 148.226 64.0659 148.486 64.0622C148.756 64.0659 148.995 64.2538 149.086 64.534L150.416 68.7392L150.696 67.8141C150.791 67.5045 151.064 67.3092 151.361 67.335C151.658 67.3644 151.897 67.6077 151.941 67.932L152.309 70.6298L152.306 70.6335Z" fill="black"/>
<path d="M158.917 52.9982C158.863 52.9982 158.809 52.9908 158.755 52.9761C158.411 52.8802 158.205 52.4969 158.292 52.121C158.566 50.9601 159.744 48.8777 162.251 49.3163C162.602 49.379 162.841 49.7365 162.784 50.1198C162.727 50.5031 162.396 50.7647 162.048 50.7021C160.057 50.352 159.558 52.3827 159.538 52.4711C159.463 52.7881 159.2 52.9982 158.917 52.9982Z" fill="black"/>
<path d="M188.398 51.653C188.148 51.653 187.909 51.4908 187.804 51.2218C187.048 49.25 185.3 49.7623 185.101 49.8286C184.76 49.9392 184.402 49.7328 184.298 49.3642C184.193 48.9957 184.379 48.605 184.716 48.4871C185.766 48.1259 188.003 48.1222 188.989 50.68C189.127 51.0375 188.972 51.4503 188.644 51.5977C188.563 51.6345 188.479 51.653 188.395 51.653H188.398Z" fill="black"/>
<path d="M172.915 70.5893C172.773 70.5893 172.628 70.5856 172.486 70.5782C167.968 70.3497 164.9 66.5978 164.768 66.4394C164.536 66.1482 164.559 65.7059 164.826 65.4479C165.092 65.1936 165.497 65.2194 165.734 65.5106C165.761 65.5438 168.585 68.9824 172.557 69.174C175.024 69.2957 177.44 68.1495 179.745 65.7723C180.005 65.5069 180.41 65.518 180.653 65.8018C180.896 66.0819 180.886 66.5278 180.626 66.7932C178.186 69.3104 175.594 70.5856 172.915 70.5856V70.5893Z" fill="black"/>
<path d="M170.063 45.6677C170.063 45.6677 167.532 46.9281 170.779 48.6087C170.779 48.6087 173.394 47.0534 170.063 45.6677Z" fill="white"/>
<path d="M177.42 45.6676C177.42 45.6676 175.082 46.6111 176.85 48.1185C176.85 48.1185 178.669 47.9453 178.574 46.8544C178.48 45.7635 178.291 45.4834 177.42 45.6676Z" fill="white"/>
<path d="M182.57 54.8373C181.723 55.8692 180.602 56.3447 179.408 56.599C178.223 56.8533 177.059 56.6321 175.928 56.2157C175.321 55.9909 174.778 55.6334 174.315 55.1358C174.207 55.0179 174.103 54.8926 174.008 54.7673C173.877 54.7894 173.742 54.8078 173.607 54.8152C173.219 54.841 172.831 54.8078 172.446 54.7451C171.906 55.3459 171.268 55.7476 170.515 55.9466C168.427 56.4995 166.462 56.1788 164.684 54.8189C164.232 54.4724 163.773 54.1075 163.53 53.5068C163.476 53.5473 163.419 53.5842 163.368 53.6284C162.858 54.0817 162.254 54.2144 161.623 54.2439C161.289 54.2586 161.158 54.0044 161.343 53.7021C161.465 53.5031 161.64 53.3262 161.822 53.1935C162.318 52.836 162.831 52.5043 163.338 52.1653C163.503 52.0547 163.665 51.9441 163.83 51.8336L163.783 51.7083C163.665 51.7525 163.533 51.7783 163.425 51.8483C162.862 52.1984 162.295 52.5449 161.745 52.9208C161.546 53.0572 161.363 53.2378 161.212 53.4331C161.1 53.5805 161.016 53.7795 160.982 53.9712C160.921 54.2955 161.036 54.4687 161.336 54.524C161.542 54.5609 161.762 54.5646 161.964 54.524C162.514 54.4171 163.03 54.2071 163.506 53.8274C163.827 54.4024 164.215 54.8926 164.721 55.2537C165.312 55.6739 165.933 56.024 166.624 56.212C166.969 56.3078 167.313 56.4073 167.684 56.5142C167.782 57.067 167.893 57.6162 167.981 58.169C168.238 59.8423 168.801 61.3976 169.564 62.8644C169.733 63.1887 169.949 63.4873 170.181 63.7637C170.657 64.3349 171.238 64.7477 171.936 64.8841C173.57 65.201 174.98 64.7551 176.07 63.3251C177.032 62.0646 177.687 60.6199 178.193 59.0867C178.389 58.4897 178.574 57.8852 178.767 57.2845C178.817 57.1297 178.878 57.0118 179.06 56.9823C179.904 56.8459 180.707 56.5547 181.46 56.1199C181.773 55.9393 182.077 55.7255 182.361 55.4896C182.631 55.2685 182.826 54.9663 182.958 54.583C182.708 54.6899 182.701 54.6862 182.577 54.8373H182.57ZM168.231 57.5646C168.17 57.2624 168.109 56.9638 168.045 56.6616L168.133 56.6432C168.187 56.9454 168.241 57.2476 168.295 57.5498C168.275 57.5535 168.251 57.5609 168.231 57.5646Z" fill="black"/>
<path d="M172.898 65.3669C172.567 65.3669 172.226 65.3337 171.872 65.2637C171.143 65.1236 170.485 64.7035 169.915 64.0217C169.631 63.6826 169.415 63.3656 169.253 63.0524C168.41 61.427 167.876 59.8496 167.63 58.228C167.573 57.8521 167.502 57.4798 167.431 57.1039C167.414 57.0118 167.397 56.9159 167.377 56.8201L167.266 56.7869C167.019 56.7169 166.78 56.6469 166.54 56.5805C165.885 56.4 165.248 56.0793 164.529 55.5707C164.104 55.2685 163.736 54.8705 163.405 54.3582C162.997 54.6198 162.544 54.7967 162.028 54.8999C161.795 54.9442 161.535 54.9478 161.279 54.8999C161.026 54.8557 160.84 54.7415 160.726 54.5609C160.611 54.3803 160.58 54.1555 160.631 53.8864C160.678 53.6284 160.79 53.3704 160.938 53.1788C161.12 52.9392 161.333 52.7328 161.556 52.5817C162.092 52.2205 162.646 51.8778 163.182 51.5424L163.25 51.5019C163.361 51.4318 163.469 51.3987 163.567 51.3655C163.601 51.3544 163.635 51.3434 163.665 51.3323L163.982 51.2144L164.279 51.9847L163.091 52.7844C162.737 53.0203 162.369 53.2635 162.021 53.5142C161.89 53.61 161.775 53.7242 161.687 53.8459C162.332 53.8053 162.784 53.6432 163.145 53.3225C163.189 53.282 163.236 53.2488 163.284 53.2156L163.685 52.9171L163.861 53.3483C164.056 53.8311 164.428 54.1407 164.893 54.4982C166.527 55.7476 168.393 56.1088 170.438 55.567C171.12 55.3864 171.693 55.0289 172.196 54.4687L172.324 54.3287L172.503 54.3582C172.905 54.4245 173.259 54.4466 173.586 54.4245C173.711 54.4171 173.833 54.4024 173.954 54.3803L174.157 54.3434L174.288 54.5166C174.379 54.6383 174.474 54.7525 174.568 54.8557C174.98 55.3017 175.48 55.6334 176.047 55.8434C177.309 56.3078 178.355 56.4294 179.344 56.2157C180.683 55.9282 181.625 55.4049 182.31 54.5756C182.479 54.3729 182.543 54.3397 182.782 54.2365L183.572 53.8975L183.292 54.7193C183.133 55.1837 182.897 55.5375 182.577 55.8029C182.266 56.0572 181.945 56.282 181.628 56.4663C180.835 56.9233 179.995 57.2292 179.121 57.3693C179.118 57.3803 179.111 57.395 179.104 57.4135L178.929 57.9737C178.797 58.3901 178.665 58.8066 178.53 59.2194C177.936 61.0216 177.241 62.4074 176.347 63.5757C175.436 64.7698 174.278 65.3706 172.901 65.3706L172.898 65.3669ZM168.308 57.9442C168.315 57.9958 168.325 58.0474 168.332 58.099C168.568 59.6285 169.071 61.1211 169.874 62.6654C170.009 62.9271 170.198 63.1998 170.445 63.4946C170.904 64.0475 171.427 64.3829 171.997 64.4934C173.586 64.7993 174.828 64.3349 175.797 63.0708C176.637 61.9725 177.292 60.6604 177.855 58.9503C177.99 58.5413 178.122 58.1285 178.25 57.7157L178.426 57.1555C178.426 57.1555 178.436 57.1223 178.443 57.1002C177.633 57.1113 176.775 56.9417 175.814 56.5842C175.142 56.3373 174.555 55.9429 174.062 55.4122C173.995 55.3385 173.927 55.2611 173.863 55.1837C173.786 55.1948 173.705 55.2021 173.627 55.2058C173.296 55.2279 172.952 55.2132 172.571 55.1579C172.007 55.7366 171.346 56.1309 170.6 56.3262C169.874 56.5179 169.172 56.6063 168.491 56.5916L168.713 57.8484L168.308 57.9405V57.9442Z" fill="black"/>
<path d="M168.994 52.6297C169.908 53.6653 171.032 54.2771 172.335 54.4872C172.412 54.4982 172.486 54.5167 172.591 54.5388C172.578 54.5609 172.561 54.583 172.544 54.6051C172.709 54.6199 172.871 54.6199 173.033 54.6051C173.02 54.5719 173.01 54.5425 173.003 54.513C173.091 54.5056 173.172 54.4909 173.256 54.4872C173.414 54.4835 173.57 54.4688 173.725 54.4466C173.806 54.4135 173.887 54.3766 173.968 54.3324C174.056 54.2845 174.154 54.2845 174.228 54.3434C174.417 54.2918 174.599 54.2218 174.781 54.1334C175.041 54.0081 175.304 53.8791 175.554 53.7316C176.07 53.4221 176.573 53.0793 176.985 52.6076C177.903 51.5609 178.365 50.3115 178.379 48.8667C178.385 48.336 178.345 47.8053 178.18 47.3004C177.791 46.1136 177.039 45.3102 175.976 44.8421C175.443 44.6062 174.889 44.4625 174.322 44.3814C172.729 44.1566 171.191 44.3482 169.729 45.1038C169.264 45.3433 168.889 45.7045 168.606 46.1763C168.329 46.6406 168.157 47.1456 168.035 47.6873C167.853 48.4871 167.806 49.2795 167.917 50.094C168.049 51.0559 168.373 51.9184 168.994 52.6223V52.6297ZM169.972 49.4122C169.834 49.3753 169.733 49.3495 169.635 49.3164C169.351 49.2279 169.287 49.0878 169.388 48.7119C169.463 48.4355 169.77 48.2586 169.972 48.3581C170.026 48.3839 170.087 48.4834 170.08 48.5424C170.057 48.8188 170.016 49.0915 169.972 49.4085V49.4122ZM170.246 49.4527C170.185 49.0952 170.33 48.8078 170.337 48.4503C170.563 48.7709 170.526 48.8851 170.246 49.4527ZM171.45 45.3212C172.213 44.8421 175.622 45.3286 176.337 46.062C174.771 45.1849 173.091 45.277 171.45 45.3212ZM175.78 49.3237C175.757 49.3237 175.736 49.3237 175.713 49.3237C175.726 49.0731 175.736 48.8225 175.75 48.5719C175.77 48.5719 175.79 48.5719 175.81 48.5719C175.858 48.8262 175.81 49.0731 175.78 49.3237ZM176.593 49.9355C176.374 49.8508 176.155 49.766 175.935 49.6849C175.942 49.6591 175.952 49.637 175.959 49.6112C176.175 49.6997 176.391 49.7881 176.607 49.8766C176.604 49.895 176.597 49.9171 176.593 49.9355ZM176.901 49.5891C176.863 49.6333 176.779 49.6702 176.728 49.6554C176.512 49.5854 176.296 49.5006 176.087 49.4085C176.047 49.3901 176.003 49.3127 176.006 49.2648C176.02 48.9994 176.043 48.7377 176.067 48.4576C176.394 48.4687 176.62 48.6014 176.823 48.7709C177.002 48.9183 177.049 49.4159 176.901 49.5928V49.5891ZM168.484 46.9723C168.828 46.0399 169.442 45.4207 170.317 45.1001C171.916 44.5141 173.539 44.4293 175.183 44.8274C175.834 44.9858 176.428 45.2954 176.941 45.7561C177.629 46.3753 178.034 47.1787 178.119 48.1628C178.169 48.7672 178.142 49.3643 178.024 49.9576C178.014 50.0129 177.991 50.0645 177.974 50.1161C177.967 50.1161 177.96 50.1124 177.95 50.1087C177.977 49.8434 178.007 49.578 178.031 49.3127C178.166 47.8348 177.542 46.3163 176.043 45.5608C175.169 45.1222 174.255 44.9416 173.303 44.9121C173.016 44.9048 172.733 44.9048 172.446 44.9121C171.606 44.9269 170.802 45.1369 170.043 45.5166C169.277 45.9035 168.741 46.5411 168.44 47.4109C168.39 47.5547 168.339 47.6984 168.271 47.8385C168.285 47.5325 168.379 47.2488 168.481 46.9723H168.484ZM168.109 48.7672C168.109 48.7672 168.13 48.7672 168.14 48.7672L168.177 49.825C168.177 49.825 168.157 49.8323 168.15 49.8397L168.113 48.7672H168.109Z" fill="black"/>
<path d="M172.814 54.9C172.719 54.9 172.625 54.8963 172.527 54.8889L172.071 54.852L172.146 54.7415C170.84 54.4982 169.719 53.8533 168.811 52.8287C168.19 52.1247 167.816 51.2476 167.667 50.1456C167.553 49.3127 167.593 48.4908 167.789 47.6284C167.937 46.9834 168.13 46.4748 168.393 46.0288C168.703 45.5129 169.115 45.1185 169.621 44.8568C171.069 44.1087 172.618 43.8654 174.356 44.1087C174.98 44.1971 175.54 44.3519 176.074 44.5878C177.228 45.0964 178.017 45.9772 178.422 47.2119C178.578 47.6836 178.642 48.1959 178.635 48.8741C178.618 50.3925 178.125 51.7156 177.17 52.8066C176.715 53.3262 176.161 53.6911 175.679 53.9822C175.422 54.137 175.152 54.2697 174.893 54.395C174.7 54.4872 174.501 54.5646 174.295 54.6235L174.177 54.6567L174.079 54.5756C174.002 54.6383 173.911 54.6825 173.819 54.7157L173.762 54.7304C173.634 54.7488 173.506 54.7599 173.377 54.7673L173.414 54.8631L173.053 54.8926C172.976 54.9 172.895 54.9 172.814 54.9ZM168.18 50.1309C168.319 51.0817 168.646 51.8336 169.176 52.438C170.036 53.4147 171.113 54.0117 172.372 54.2144C172.426 54.2218 172.48 54.2366 172.544 54.2476L172.675 54.2771L173.053 54.2366C173.121 54.2292 173.185 54.2218 173.252 54.2181C173.391 54.2144 173.529 54.2034 173.668 54.185C173.732 54.1592 173.792 54.1297 173.853 54.0928C173.985 54.0191 174.13 54.008 174.255 54.056C174.4 54.0117 174.542 53.9528 174.677 53.8864C174.93 53.7648 175.19 53.6358 175.429 53.4921C175.878 53.223 176.391 52.884 176.799 52.4196C177.326 51.8188 177.697 51.1407 177.909 50.3925L177.69 50.3262V50.0829L177.717 49.836C177.737 49.6554 177.754 49.4711 177.771 49.2905C177.856 48.3618 177.616 47.4957 177.12 46.8212L176.215 46.3126C174.778 45.5092 173.198 45.5534 171.673 45.5976L170.458 45.6308C170.354 45.675 170.252 45.7229 170.151 45.7745C169.453 46.1247 168.956 46.7107 168.68 47.5141C168.629 47.6578 168.575 47.8163 168.498 47.9748L168.248 48.4871H168.386L168.44 50.0092L168.18 50.1345V50.1309ZM170.124 50.2783L170.03 49.7181L169.783 49.6517C169.699 49.6296 169.631 49.6112 169.561 49.5891C169.429 49.5485 169.243 49.4711 169.145 49.2758C169.041 49.0694 169.088 48.8262 169.139 48.6345C169.199 48.4134 169.355 48.2254 169.554 48.1222C169.729 48.0338 169.918 48.0264 170.074 48.1038C170.077 48.1038 170.084 48.1075 170.087 48.1112L170.094 47.6468L170.539 48.2807C170.867 48.7451 170.759 48.9994 170.468 49.5854L170.124 50.2783ZM169.598 49.0068C169.598 49.0068 169.628 49.0252 169.702 49.0473C169.723 49.0547 169.739 49.0584 169.76 49.0657C169.78 48.9109 169.8 48.7635 169.814 48.6161C169.8 48.6161 169.787 48.6235 169.77 48.6308C169.702 48.664 169.648 48.7267 169.631 48.793C169.591 48.9404 169.598 48.9957 169.598 49.0068ZM176.786 50.2414L176.506 50.1972L175.608 49.8507L175.689 49.5964L175.443 49.5854L175.507 48.2733L175.821 48.2918L175.831 48.1701L176.07 48.1775C176.489 48.1886 176.762 48.3728 176.975 48.5461C177.181 48.7156 177.228 49.0289 177.238 49.1542C177.258 49.4122 177.204 49.637 177.086 49.777C177.032 49.8397 176.948 49.895 176.857 49.9208L176.782 50.2414H176.786ZM176.266 49.1837C176.428 49.2537 176.58 49.3127 176.725 49.3606C176.749 49.2537 176.722 49.0436 176.668 48.992C176.55 48.8962 176.435 48.8188 176.296 48.7746C176.286 48.9146 176.273 49.051 176.266 49.1837Z" fill="black"/>
<mask id="mask0_1169_113" style="mask-type:luminance" maskUnits="userSpaceOnUse" x="169" y="55" width="8" height="9">
<path d="M173.171 63.5794C175.141 63.5794 176.738 61.8353 176.738 59.6838C176.738 57.5323 175.141 55.7882 173.171 55.7882C171.201 55.7882 169.604 57.5323 169.604 59.6838C169.604 61.8353 171.201 63.5794 173.171 63.5794Z" fill="white"/>
</mask>
<g mask="url(#mask0_1169_113)">
<path d="M170.741 54.6751C170.741 54.6751 170.741 60.2293 173.235 60.3767L173.384 52.7992C173.384 52.7992 173.016 53.2894 172.074 54.0781C171.133 54.8668 170.741 54.6751 170.741 54.6751Z" fill="white"/>
<path d="M173.455 60.6347L173.222 60.62C170.549 60.4615 170.515 54.9111 170.515 54.6752V54.2956L170.822 54.4467C170.86 54.4541 171.2 54.502 171.939 53.8865C172.844 53.131 173.208 52.6518 173.212 52.6482L173.623 52.1027L173.455 60.6421V60.6347ZM170.971 54.9369C171.008 55.9651 171.265 59.6949 173.013 60.1003L173.144 53.4184C172.928 53.6396 172.625 53.9307 172.209 54.2772C171.629 54.7637 171.224 54.9111 170.971 54.9406V54.9369Z" fill="black"/>
<path d="M175.969 55.0695C175.969 55.0695 175.82 60.6089 173.33 60.373L173.38 52.7882C173.38 52.7882 173.647 53.5916 174.491 54.1592C175.334 54.7268 175.965 55.0732 175.965 55.0732L175.969 55.0695Z" fill="white"/>
<path d="M173.482 60.6236C173.424 60.6236 173.367 60.6236 173.31 60.6163L173.104 60.5978L173.168 51.4282L173.593 52.7034C173.593 52.7034 173.85 53.4368 174.612 53.9491C175.196 54.3435 175.679 54.6309 175.915 54.7636L176.212 54.3877L176.195 55.0732C176.192 55.2243 176.08 58.7624 174.7 60.104C174.346 60.4504 173.937 60.6236 173.485 60.6236H173.482ZM173.6 53.6358L173.556 60.1335C173.87 60.115 174.147 59.986 174.4 59.7428C175.483 58.6887 175.699 55.9135 175.736 55.2206C175.51 55.0916 175 54.7931 174.373 54.3693C174.035 54.1408 173.782 53.8791 173.6 53.6358Z" fill="black"/>
</g>
<path d="M182.297 55.0805C182.752 54.7378 183.215 54.3766 183.461 53.7759C183.515 53.8164 183.572 53.8533 183.623 53.8975C184.129 54.3545 184.733 54.4909 185.361 54.524C185.695 54.5425 185.827 54.2882 185.644 53.9859C185.526 53.7869 185.351 53.6063 185.168 53.4736C184.676 53.1125 184.163 52.7771 183.66 52.4306C183.498 52.3201 183.333 52.2058 183.171 52.0953C183.188 52.0547 183.204 52.0105 183.221 51.9699C183.339 52.0142 183.471 52.0437 183.576 52.11C184.136 52.4638 184.699 52.8176 185.249 53.1935C185.449 53.3299 185.631 53.5142 185.779 53.7095C185.891 53.8569 185.972 54.0596 186.005 54.2476C186.063 54.5719 185.948 54.7452 185.648 54.7968C185.442 54.8299 185.222 54.8336 185.02 54.7931C184.47 54.6825 183.954 54.4651 183.481 54.0854C183.154 54.6567 182.766 55.1432 182.256 55.5007" fill="black"/>
<path d="M182.448 55.836L182.064 55.18C182.131 55.1321 182.199 55.0805 182.266 55.0252L182.097 54.7599C182.567 54.406 182.941 54.1001 183.137 53.6173L183.312 53.1898L183.711 53.492C183.758 53.5252 183.805 53.562 183.849 53.5989C184.207 53.9232 184.659 54.0891 185.303 54.1333C185.219 54.0117 185.104 53.8974 184.973 53.8016C184.628 53.5473 184.264 53.3041 183.913 53.0645L182.725 52.2537L183.025 51.4834L183.343 51.605C183.376 51.6161 183.407 51.6271 183.441 51.6382C183.538 51.6714 183.646 51.7045 183.758 51.7746L183.819 51.8114C184.355 52.1505 184.909 52.4969 185.442 52.8655C185.665 53.0166 185.877 53.2267 186.056 53.4662C186.201 53.6579 186.309 53.9159 186.356 54.1775C186.404 54.4466 186.37 54.6714 186.255 54.852C186.14 55.0326 185.951 55.1468 185.702 55.1874C185.445 55.2316 185.185 55.2279 184.952 55.18C184.439 55.0731 183.987 54.8925 183.579 54.6309C183.245 55.1431 182.874 55.5375 182.448 55.836Z" fill="black"/>
<path d="M160.635 45.3027C165.37 45.3027 169.21 41.1099 169.21 35.9377C169.21 30.7656 165.37 26.5728 160.635 26.5728C155.899 26.5728 152.06 30.7656 152.06 35.9377C152.06 41.1099 155.899 45.3027 160.635 45.3027Z" fill="white"/>
<path d="M160.635 45.863C155.623 45.863 151.543 41.4108 151.543 35.9341C151.543 30.4574 155.62 26.0052 160.635 26.0052C165.649 26.0052 169.726 30.4574 169.726 35.9341C169.726 41.4108 165.649 45.863 160.635 45.863ZM160.635 27.1367C156.194 27.1367 152.579 31.0839 152.579 35.9378C152.579 40.7917 156.194 44.7352 160.635 44.7352C165.076 44.7352 168.693 40.788 168.693 35.9378C168.693 31.0876 165.079 27.1367 160.635 27.1367Z" fill="black"/>
<path d="M160.634 43.4969C164.457 43.4969 167.556 40.1126 167.556 35.9378C167.556 31.7631 164.457 28.3788 160.634 28.3788C156.812 28.3788 153.713 31.7631 153.713 35.9378C153.713 40.1126 156.812 43.4969 160.634 43.4969Z" fill="white"/>
<path d="M160.634 44.1971C156.463 44.1971 153.072 40.4931 153.072 35.9378C153.072 31.3824 156.463 27.6785 160.634 27.6785C164.806 27.6785 168.197 31.3824 168.197 35.9378C168.197 40.4931 164.806 44.1971 160.634 44.1971ZM160.634 29.0827C157.172 29.0827 154.358 32.1601 154.358 35.9378C154.358 39.7155 157.175 42.7929 160.634 42.7929C164.093 42.7929 166.911 39.7192 166.911 35.9378C166.911 32.1564 164.093 29.0827 160.634 29.0827Z" fill="black"/>
<path d="M184.183 45.3027C188.919 45.3027 192.758 41.1099 192.758 35.9377C192.758 30.7656 188.919 26.5728 184.183 26.5728C179.447 26.5728 175.608 30.7656 175.608 35.9377C175.608 41.1099 179.447 45.3027 184.183 45.3027Z" fill="white"/>
<path d="M184.183 45.863C179.172 45.863 175.092 41.4108 175.092 35.9341C175.092 30.4574 179.168 26.0052 184.183 26.0052C189.198 26.0052 193.274 30.4574 193.274 35.9341C193.274 41.4108 189.198 45.863 184.183 45.863ZM184.183 27.1367C179.742 27.1367 176.124 31.0839 176.124 35.9378C176.124 40.7917 179.738 44.7352 184.183 44.7352C188.627 44.7352 192.238 40.788 192.238 35.9378C192.238 31.0876 188.624 27.1367 184.183 27.1367Z" fill="black"/>
<path d="M191.104 35.9378C191.104 40.1136 188.006 43.4969 184.183 43.4969C180.359 43.4969 177.261 40.1136 177.261 35.9378C177.261 31.7621 180.359 28.3788 184.183 28.3788C188.006 28.3788 191.104 31.7621 191.104 35.9378Z" fill="white"/>
<path d="M184.183 44.1971C180.012 44.1971 176.62 40.4931 176.62 35.9378C176.62 31.3824 180.012 27.6785 184.183 27.6785C188.354 27.6785 191.746 31.3824 191.746 35.9378C191.746 40.4931 188.354 44.1971 184.183 44.1971ZM184.183 29.0827C180.721 29.0827 177.906 32.1601 177.906 35.9378C177.906 39.7155 180.724 42.7929 184.183 42.7929C187.642 42.7929 190.46 39.7192 190.46 35.9378C190.46 32.1564 187.645 29.0827 184.183 29.0827Z" fill="black"/>
<path d="M175.881 34.6957H169.014V37.1761H175.881V34.6957Z" fill="black"/>
<path d="M166.149 40.7548C166.267 40.6221 166.388 40.4931 166.513 40.3715C166.921 39.2511 167.384 38.1417 167.374 36.8555C167.34 33.2621 164.495 31.0876 161.417 32.3554C158.633 33.5016 156.838 37.1282 157.547 40.154C157.901 41.6688 158.721 42.7597 160.159 43.4526C159.733 43.6848 159.457 43.8101 159.207 43.9797C159.17 44.0055 159.136 44.0349 159.106 44.0644C159.534 43.9907 159.966 43.9612 160.402 43.9833C160.435 43.9833 160.469 43.9833 160.503 43.9833C161.711 43.6295 162.868 43.0841 164.043 42.5939C164.647 41.8641 165.362 41.2376 166.145 40.7548H166.149ZM163.597 35.9599C163.466 36.5201 163.122 36.8334 162.592 36.8665C162.001 36.9071 161.647 36.509 161.333 35.4365C159.919 37.4452 159.224 39.5238 160.256 42.0263C158.37 40.8543 158.066 37.998 159.49 35.6724C160.715 33.6712 163.105 32.654 164.276 33.6491C163.732 33.837 163.192 34.0213 162.528 34.2535C163.452 34.8542 163.739 35.337 163.594 35.9599H163.597Z" fill="black"/>
<path d="M180.717 42.5939C181.892 43.0804 183.049 43.6259 184.257 43.9834C184.291 43.9834 184.325 43.9834 184.358 43.9834C184.794 43.9612 185.229 43.9907 185.654 44.0644C185.621 44.035 185.59 44.0055 185.553 43.9797C185.303 43.8065 185.027 43.6848 184.601 43.4526C186.042 42.7598 186.859 41.6688 187.213 40.1541C187.922 37.1282 186.127 33.5053 183.343 32.3555C180.265 31.0876 177.417 33.2658 177.386 36.8555C177.376 38.1418 177.839 39.2511 178.247 40.3715C178.372 40.4968 178.493 40.6258 178.611 40.7548C179.398 41.2413 180.113 41.8642 180.714 42.5939H180.717ZM182.229 34.2535C181.564 34.025 181.024 33.837 180.481 33.6491C181.652 32.654 184.041 33.6712 185.266 35.6724C186.687 37.998 186.387 40.8543 184.5 42.0263C185.536 39.5202 184.838 37.4452 183.424 35.4366C183.113 36.5128 182.759 36.9071 182.165 36.8666C181.638 36.8297 181.291 36.5201 181.159 35.9599C181.014 35.3371 181.298 34.8543 182.226 34.2535H182.229Z" fill="black"/>
<path d="M162.69 42.6676C162.514 42.6676 162.349 42.5496 162.285 42.358C162.204 42.1148 162.318 41.8457 162.545 41.7573C162.599 41.7351 167.904 39.5865 167.286 35.208C167.249 34.95 167.411 34.7105 167.647 34.6736C167.883 34.6331 168.103 34.81 168.136 35.068C168.44 37.2167 167.607 39.2142 165.724 40.8469C164.343 42.0447 162.896 42.6197 162.835 42.6455C162.788 42.6639 162.737 42.675 162.69 42.675V42.6676Z" fill="black"/>
<path d="M192.64 39.7929C192.525 40.3163 196.457 35.7241 196.457 35.7241L194.216 27.8812L186.839 26.8788C186.839 26.8788 195.09 28.6847 192.643 39.7929H192.64Z" fill="black"/>
<path d="M152.242 39.7929C152.356 40.3163 148.425 35.7241 148.425 35.7241L150.666 27.8812L158.043 26.8788C158.043 26.8788 149.792 28.6847 152.238 39.7929H152.242Z" fill="black"/>
<path d="M169.486 61.8693C169.486 61.8693 170.397 64.9394 172.834 64.873C172.834 64.873 175.682 64.5782 176.509 62.0978C176.509 62.0978 173.205 59.3889 169.486 61.873V61.8693Z" fill="white"/>
<path d="M172.753 65.4259C170.043 65.4259 169.047 62.1789 169.007 62.0388C168.936 61.7956 169.024 61.5302 169.223 61.3975C173.188 58.7513 176.779 61.6224 176.816 61.6518C176.995 61.7993 177.066 62.0536 176.988 62.2821C176.063 65.061 173.013 65.4074 172.884 65.4185C172.874 65.4185 172.861 65.4185 172.851 65.4185C172.817 65.4185 172.787 65.4185 172.753 65.4185V65.4259ZM170.124 62.1089C170.441 62.857 171.261 64.3423 172.803 64.3165C172.996 64.2907 175.048 63.9811 175.874 62.2968C175.034 61.7587 172.729 60.6052 170.124 62.1052V62.1089Z" fill="black"/>
<path d="M159.531 28.3898C163.408 28.3898 166.55 25.0599 166.55 20.9524C166.55 16.8448 163.408 13.5149 159.531 13.5149C155.654 13.5149 152.512 16.8448 152.512 20.9524C152.512 25.0599 155.654 28.3898 159.531 28.3898Z" fill="black"/>
<path d="M155.741 22.1575C155.633 22.1575 155.525 22.1133 155.444 22.0212C155.282 21.8406 155.282 21.5531 155.444 21.3725L157.925 18.6784C158.09 18.5015 158.353 18.5015 158.519 18.6784C158.681 18.859 158.681 19.1464 158.519 19.327L156.038 22.0212C155.957 22.1096 155.849 22.1538 155.741 22.1538V22.1575Z" fill="white"/>
<path d="M160.351 23.5322C160.243 23.5322 160.135 23.488 160.054 23.3959C159.892 23.2153 159.892 22.9278 160.054 22.7472L162.534 20.0531C162.7 19.8762 162.963 19.8762 163.128 20.0531C163.29 20.2337 163.29 20.5211 163.128 20.7017L160.648 23.3959C160.567 23.4843 160.459 23.5285 160.351 23.5285V23.5322Z" fill="white"/>
<path d="M157 23.9893C156.892 23.9893 156.788 23.945 156.707 23.8566C156.541 23.6797 156.541 23.3885 156.707 23.2079L161.337 18.1108C161.499 17.9302 161.765 17.9302 161.931 18.1108C162.096 18.2877 162.096 18.5789 161.931 18.7595L157.3 23.8566C157.219 23.945 157.112 23.993 157.004 23.993L157 23.9893Z" fill="white"/>
<path d="M184.983 28.3898C188.859 28.3898 192.002 25.0599 192.002 20.9524C192.002 16.8448 188.859 13.5149 184.983 13.5149C181.106 13.5149 177.963 16.8448 177.963 20.9524C177.963 25.0599 181.106 28.3898 184.983 28.3898Z" fill="black"/>
<path d="M181.402 22.1575C181.294 22.1575 181.186 22.1133 181.105 22.0212C180.943 21.8406 180.943 21.5531 181.105 21.3725L183.586 18.6784C183.751 18.5015 184.014 18.5015 184.179 18.6784C184.341 18.859 184.341 19.1464 184.179 19.327L181.699 22.0212C181.618 22.1096 181.51 22.1538 181.402 22.1538V22.1575Z" fill="white"/>
<path d="M186.012 23.5322C185.904 23.5322 185.796 23.488 185.715 23.3959C185.553 23.2153 185.553 22.9278 185.715 22.7472L188.195 20.0531C188.361 19.8762 188.624 19.8762 188.789 20.0531C188.951 20.2337 188.951 20.5211 188.789 20.7017L186.309 23.3959C186.228 23.4843 186.12 23.5285 186.012 23.5285V23.5322Z" fill="white"/>
<path d="M182.661 23.9893C182.553 23.9893 182.448 23.945 182.367 23.8566C182.202 23.6797 182.202 23.3885 182.367 23.2079L186.997 18.1108C187.159 17.9302 187.426 17.9302 187.591 18.1108C187.757 18.2877 187.757 18.5789 187.591 18.7595L182.961 23.8566C182.88 23.945 182.772 23.993 182.664 23.993L182.661 23.9893Z" fill="white"/>
<path d="M183.363 26.7059L183.363 26.7096C183.337 27.2646 183.728 27.7376 184.236 27.7661L185.689 27.8475C186.197 27.876 186.63 27.4493 186.656 26.8943L186.656 26.8906C186.682 26.3357 186.291 25.8627 185.783 25.8342L184.331 25.7527C183.823 25.7242 183.389 26.151 183.363 26.7059Z" fill="white"/>
<path d="M185.742 28.4045C185.719 28.4045 185.692 28.4045 185.668 28.4045L184.22 28.3234C183.434 28.2792 182.826 27.5458 182.867 26.687C182.887 26.2706 183.053 25.8873 183.336 25.6109C183.619 25.3344 183.981 25.1907 184.365 25.2128L185.813 25.2939C186.194 25.316 186.545 25.4966 186.798 25.8062C187.055 26.1158 187.183 26.5138 187.163 26.9303C187.122 27.7632 186.491 28.4082 185.739 28.4082L185.742 28.4045ZM184.291 26.3074C184.186 26.3074 184.089 26.348 184.011 26.4254C183.927 26.5064 183.879 26.6207 183.873 26.7423C183.859 26.9929 184.038 27.2067 184.267 27.2214L185.715 27.3025C185.826 27.3099 185.934 27.2657 186.015 27.1846C186.1 27.1035 186.147 26.9929 186.154 26.8676C186.161 26.746 186.12 26.6281 186.046 26.5396C185.972 26.4475 185.867 26.3959 185.756 26.3885L184.308 26.3074C184.308 26.3074 184.294 26.3074 184.284 26.3074H184.291Z" fill="black"/>
<path d="M158.323 26.9275L158.323 26.9312C158.359 27.4855 158.8 27.903 159.307 27.8638L160.758 27.7516C161.266 27.7123 161.648 27.2312 161.612 26.6769L161.612 26.6732C161.576 26.1189 161.135 25.7014 160.628 25.7406L159.177 25.8528C158.669 25.892 158.287 26.3732 158.323 26.9275Z" fill="white"/>
<path d="M159.247 28.4193C158.903 28.4193 158.576 28.2866 158.313 28.036C158.026 27.7633 157.85 27.3836 157.823 26.9672C157.796 26.5507 157.918 26.149 158.167 25.8357C158.417 25.5224 158.765 25.3308 159.146 25.3013L160.594 25.1907C160.972 25.1613 161.343 25.2939 161.63 25.5667C161.917 25.8394 162.092 26.219 162.119 26.6355C162.173 27.4942 161.583 28.2387 160.796 28.3013L159.349 28.4119C159.315 28.4119 159.281 28.4156 159.244 28.4156L159.247 28.4193ZM160.695 26.289C160.695 26.289 160.675 26.289 160.665 26.289L159.217 26.3996C159.106 26.407 159.004 26.4623 158.93 26.5544C158.856 26.6465 158.822 26.7645 158.829 26.8861C158.836 27.0077 158.886 27.1183 158.971 27.1994C159.055 27.2805 159.163 27.3173 159.274 27.3099L160.722 27.1994C160.952 27.1809 161.124 26.9635 161.11 26.7129C161.103 26.5913 161.053 26.4807 160.968 26.3996C160.891 26.3259 160.796 26.289 160.695 26.289Z" fill="black"/>
</g>
<defs>
<clipPath id="clip0_1169_113">
<rect width="357.226" height="106.354" fill="white"/>
</clipPath>
</defs>
</svg>
