<svg width="26" height="25" viewBox="0 0 26 25" fill="none" xmlns="http://www.w3.org/2000/svg">
<path d="M24.7981 12.4261H9.36397M3.91611 12.4261H1.6875M3.91611 12.4261C3.91611 11.7038 4.20303 11.0111 4.71375 10.5004C5.22447 9.98969 5.91715 9.70277 6.63942 9.70277C7.36168 9.70277 8.05436 9.98969 8.56508 10.5004C9.0758 11.0111 9.36272 11.7038 9.36272 12.4261C9.36272 13.1483 9.0758 13.841 8.56508 14.3517C8.05436 14.8625 7.36168 15.1494 6.63942 15.1494C5.91715 15.1494 5.22447 14.8625 4.71375 14.3517C4.20303 13.841 3.91611 13.1483 3.91611 12.4261ZM24.7981 20.6797H17.6176M17.6176 20.6797C17.6176 21.4021 17.33 22.0956 16.8191 22.6064C16.3083 23.1173 15.6155 23.4042 14.893 23.4042C14.1708 23.4042 13.4781 23.1161 12.9674 22.6053C12.4566 22.0946 12.1697 21.4019 12.1697 20.6797M17.6176 20.6797C17.6176 19.9573 17.33 19.265 16.8191 18.7542C16.3083 18.2434 15.6155 17.9564 14.893 17.9564C14.1708 17.9564 13.4781 18.2433 12.9674 18.754C12.4566 19.2647 12.1697 19.9574 12.1697 20.6797M12.1697 20.6797H1.6875M24.7981 4.17246H20.9193M15.4714 4.17246H1.6875M15.4714 4.17246C15.4714 3.4502 15.7583 2.75751 16.2691 2.24679C16.7798 1.73608 17.4725 1.44916 18.1947 1.44916C18.5523 1.44916 18.9065 1.5196 19.2369 1.65646C19.5673 1.79332 19.8675 1.99391 20.1204 2.24679C20.3733 2.49968 20.5739 2.79989 20.7107 3.1303C20.8476 3.4607 20.918 3.81483 20.918 4.17246C20.918 4.53009 20.8476 4.88422 20.7107 5.21463C20.5739 5.54503 20.3733 5.84525 20.1204 6.09813C19.8675 6.35101 19.5673 6.55161 19.2369 6.68847C18.9065 6.82533 18.5523 6.89577 18.1947 6.89577C17.4725 6.89577 16.7798 6.60885 16.2691 6.09813C15.7583 5.58741 15.4714 4.89473 15.4714 4.17246Z" stroke="black" stroke-width="1.5" stroke-miterlimit="10" stroke-linecap="round"/>
</svg>
