<svg width="47" height="48" viewBox="0 0 47 48" fill="none" xmlns="http://www.w3.org/2000/svg">
<g clip-path="url(#clip0_1169_332)">
<path d="M23.4774 4.32187C29.4982 4.32187 30.2112 4.35 32.579 4.4625C34.7796 4.56562 35.9679 4.95938 36.7601 5.2875C37.8076 5.71875 38.5646 6.24375 39.348 7.07812C40.1403 7.92188 40.6244 8.71875 41.0293 9.83438C41.3374 10.6781 41.7071 11.9531 41.8039 14.2875C41.9095 16.8187 41.9359 17.5781 41.9359 23.9813C41.9359 30.3938 41.9095 31.1531 41.8039 33.675C41.7071 36.0188 41.3374 37.2844 41.0293 38.1281C40.6244 39.2438 40.1315 40.05 39.348 40.8844C38.5558 41.7281 37.8076 42.2438 36.7601 42.675C35.9679 43.0031 34.7708 43.3969 32.579 43.5C30.2024 43.6125 29.4894 43.6406 23.4774 43.6406C17.4566 43.6406 16.7436 43.6125 14.3758 43.5C12.1752 43.3969 10.9868 43.0031 10.1946 42.675C9.14716 42.2438 8.39015 41.7188 7.60674 40.8844C6.81453 40.0406 6.3304 39.2438 5.92549 38.1281C5.61741 37.2844 5.24771 36.0094 5.15089 33.675C5.04526 31.1438 5.01885 30.3844 5.01885 23.9813C5.01885 17.5688 5.04526 16.8094 5.15089 14.2875C5.24771 11.9437 5.61741 10.6781 5.92549 9.83438C6.3304 8.71875 6.82333 7.9125 7.60674 7.07812C8.39896 6.23438 9.14716 5.71875 10.1946 5.2875C10.9868 4.95938 12.184 4.56562 14.3758 4.4625C16.7436 4.35 17.4566 4.32187 23.4774 4.32187ZM23.4774 0C17.3598 0 16.5939 0.028125 14.1909 0.140625C11.7967 0.253125 10.1506 0.665625 8.72464 1.25625C7.23704 1.875 5.97831 2.69062 4.72837 4.03125C3.46964 5.3625 2.70383 6.70313 2.12288 8.27813C1.56833 9.80625 1.18102 11.55 1.07539 14.1C0.969766 16.6687 0.943359 17.4844 0.943359 24C0.943359 30.5156 0.969766 31.3312 1.07539 33.8906C1.18102 36.4406 1.56833 38.1938 2.12288 39.7125C2.70383 41.2969 3.46964 42.6375 4.72837 43.9688C5.97831 45.3 7.23704 46.125 8.71584 46.7344C10.1506 47.325 11.7879 47.7375 14.1821 47.85C16.5851 47.9625 17.351 47.9906 23.4686 47.9906C29.5862 47.9906 30.352 47.9625 32.7551 47.85C35.1493 47.7375 36.7954 47.325 38.2213 46.7344C39.7001 46.125 40.9589 45.3 42.2088 43.9688C43.4587 42.6375 44.2333 41.2969 44.8055 39.7219C45.3601 38.1938 45.7474 36.45 45.853 33.9C45.9586 31.3406 45.985 30.525 45.985 24.0094C45.985 17.4938 45.9586 16.6781 45.853 14.1188C45.7474 11.5688 45.3601 9.81563 44.8055 8.29688C44.251 6.70312 43.4851 5.3625 42.2264 4.03125C40.9765 2.7 39.7177 1.875 38.2389 1.26562C36.8042 0.675 35.1669 0.2625 32.7727 0.15C30.3608 0.028125 29.595 0 23.4774 0Z" fill="#000100"/>
<path d="M23.4774 11.6719C17.0869 11.6719 11.9023 17.1938 11.9023 24C11.9023 30.8062 17.0869 36.3281 23.4774 36.3281C29.868 36.3281 35.0525 30.8062 35.0525 24C35.0525 17.1938 29.868 11.6719 23.4774 11.6719ZM23.4774 31.9969C19.3315 31.9969 15.969 28.4156 15.969 24C15.969 19.5844 19.3315 16.0031 23.4774 16.0031C27.6234 16.0031 30.9859 19.5844 30.9859 24C30.9859 28.4156 27.6234 31.9969 23.4774 31.9969Z" fill="#000100"/>
<path d="M38.2125 11.1844C38.2125 12.7782 36.9978 14.0625 35.5102 14.0625C34.0138 14.0625 32.8079 12.7688 32.8079 11.1844C32.8079 9.59065 34.0226 8.30627 35.5102 8.30627C36.9978 8.30627 38.2125 9.60003 38.2125 11.1844Z" fill="#000100"/>
</g>
<defs>
<clipPath id="clip0_1169_332">
<rect width="45.0681" height="48" fill="white" transform="translate(0.943359)"/>
</clipPath>
</defs>
</svg>
