<svg width="174" height="241" viewBox="0 0 174 241" fill="none" xmlns="http://www.w3.org/2000/svg">
<path d="M91.5939 203.924C120.526 203.924 143.981 181.739 143.981 154.373C143.981 127.007 120.526 104.822 91.5939 104.822C62.6614 104.822 39.207 127.007 39.207 154.373C39.207 181.739 62.6614 203.924 91.5939 203.924Z" fill="white"/>
<path d="M142.498 154.374C142.476 164.368 139.192 174.142 133.072 182.303C126.951 190.465 118.681 196.303 109.101 199.602C99.522 202.901 87.9902 203.454 77.7161 200.709C67.442 197.963 58.8937 192.498 52.3052 184.987C45.7166 177.475 41.6216 167.91 40.8537 158.13C40.0859 148.349 42.5356 138.071 48.0273 129.495C53.519 120.918 61.2922 114.527 70.6303 110.494C79.9684 106.462 91.3759 105.189 101.767 107.195C112.158 109.201 121.269 114.063 128.436 121.146C135.587 128.229 140.304 137.303 141.92 146.973C142.329 149.421 142.505 151.905 142.512 154.381C142.512 156.2 145.503 156.2 145.496 154.381C145.467 143.847 142.015 133.416 135.521 124.847C129.028 116.277 120.333 110.073 110.14 106.517C99.5366 102.817 87.6831 102.437 76.8167 105.369C66.4329 108.17 57.0071 113.994 50.1333 121.872C43.2596 129.75 38.7478 140.015 37.8922 150.521C37.0366 161.028 39.7203 171.776 45.5264 180.802C51.3326 189.829 59.5226 196.621 69.3653 200.812C79.7051 205.218 91.3393 206.449 102.454 204.326C113.569 202.202 123.046 197.063 130.556 189.621C138.096 182.158 143.192 172.53 144.845 162.314C145.269 159.693 145.496 157.051 145.503 154.395C145.503 152.575 142.527 152.575 142.52 154.395L142.498 154.374Z" fill="black"/>
<path d="M91.516 203.924C113.126 203.924 130.645 181.739 130.645 154.373C130.645 127.007 113.126 104.822 91.516 104.822C69.9055 104.822 52.3867 127.007 52.3867 154.373C52.3867 181.739 69.9055 203.924 91.516 203.924Z" fill="white"/>
<path d="M129.153 154.373C129.131 163.995 126.967 173.699 122.199 182.241C118.148 189.489 112.181 195.977 104.32 199.657C97.1026 203.032 88.7371 203.399 81.2125 200.694C73.2785 197.845 66.9312 191.848 62.5584 185.097C57.3299 177.033 54.5658 167.626 54.0027 158.212C53.4104 148.425 55.0411 138.375 59.3408 129.418C62.9605 121.858 68.4888 114.859 76.0645 110.487C82.9383 106.517 91.1795 105.168 98.9892 107.188C106.799 109.208 113.826 114.589 118.609 120.973C124.283 128.533 127.588 137.614 128.7 146.793C129.007 149.311 129.153 151.842 129.153 154.38C129.153 156.199 132.144 156.199 132.137 154.38C132.115 144.178 129.753 133.907 124.656 124.881C120.364 117.273 113.921 110.39 105.629 106.572C97.7681 102.955 88.6274 102.395 80.4155 105.341C71.794 108.44 64.913 114.7 60.1086 122.038C54.5438 130.532 51.6408 140.478 51.0192 150.41C50.3684 160.764 52.2185 171.306 56.7522 180.767C60.5986 188.784 66.6021 196.157 74.6386 200.764C82.1266 205.059 91.1722 206.484 99.6693 204.319C108.166 202.154 115.72 196.371 120.971 189.489C127.04 181.521 130.433 171.921 131.647 162.231C131.976 159.623 132.13 157.002 132.137 154.38C132.137 152.561 129.153 152.561 129.153 154.38V154.373Z" fill="black"/>
<path d="M91.5969 203.924C102.126 203.924 110.661 181.739 110.661 154.373C110.661 127.007 102.126 104.822 91.5969 104.822C81.0683 104.822 72.5332 127.007 72.5332 154.373C72.5332 181.739 81.0683 203.924 91.5969 203.924Z" fill="white"/>
<path d="M109.175 154.374C109.161 163.809 108.246 173.319 105.767 182.484C104.817 185.997 103.647 189.49 102.016 192.783C100.766 195.314 99.2886 197.783 97.285 199.748C96.3929 200.626 95.7932 201.11 94.7329 201.677C94.4989 201.802 94.2649 201.913 94.0236 202.023C93.636 202.196 94.3015 201.933 93.8993 202.072C93.7823 202.113 93.658 202.155 93.541 202.196C93.2997 202.272 93.0584 202.335 92.8097 202.39C92.6854 202.418 92.5684 202.438 92.4441 202.459C92.0419 202.535 92.7585 202.438 92.349 202.473C90.3454 202.653 88.6269 202.003 87.1498 200.827C82.3674 197.009 79.9397 190.708 78.2066 185.119C75.501 176.411 74.3529 167.281 74.0897 158.227C73.8045 148.551 74.4992 138.77 76.6783 129.301C78.1774 122.821 80.3419 115.683 84.6197 110.419C85.3948 109.464 86.2796 108.579 87.2668 107.825C87.3473 107.763 87.5082 107.652 87.7714 107.479C87.9981 107.334 88.2321 107.196 88.4734 107.064C88.7147 106.933 88.9414 106.829 89.1827 106.719C89.5703 106.546 88.9048 106.809 89.307 106.67C89.424 106.629 89.5483 106.587 89.6653 106.546C89.9066 106.47 90.1479 106.407 90.3966 106.352C90.5209 106.324 90.6379 106.304 90.7622 106.283C91.1717 106.207 90.4478 106.304 90.8573 106.269C91.3764 106.221 91.8956 106.221 92.4075 106.269C92.6561 106.297 92.0492 106.207 92.4441 106.276C92.5684 106.297 92.6927 106.317 92.8097 106.345C93.0584 106.4 93.2997 106.463 93.541 106.539C94.0455 106.698 94.221 106.774 94.8499 107.12C96.8243 108.213 98.4916 110.129 99.8005 112.079C101.636 114.818 102.981 117.82 104.086 120.884C107.076 129.184 108.429 137.996 108.948 146.725C109.102 149.27 109.168 151.815 109.175 154.361C109.175 156.18 112.159 156.18 112.159 154.361C112.144 144.518 111.157 134.551 108.51 125.013C107.471 121.264 106.148 117.564 104.363 114.071C103.003 111.401 101.314 108.766 99.0619 106.677C97.2119 104.969 94.9523 103.682 92.349 103.433C89.9725 103.205 87.6178 104.049 85.7458 105.384C80.298 109.257 77.5192 116.098 75.5887 122.046C72.6272 131.169 71.406 140.832 71.1062 150.342C70.7917 160.447 71.5596 170.684 73.8923 180.568C75.5376 187.561 77.9434 195.051 82.8355 200.681C84.4735 202.563 86.5575 204.23 89.0584 204.956C91.3911 205.641 93.8774 205.295 96.0126 204.216C98.4769 202.978 100.385 200.875 101.928 198.717C103.961 195.867 105.431 192.672 106.652 189.449C109.928 180.775 111.354 171.459 111.925 162.301C112.085 159.659 112.166 157.003 112.166 154.354C112.166 152.535 109.182 152.535 109.182 154.354L109.175 154.374Z" fill="black"/>
<path d="M39.1284 155.787H49.5634C57.9143 155.787 66.2652 155.787 74.6161 155.787H131.017C135.244 155.787 139.5 155.911 143.727 155.787C143.785 155.787 143.851 155.787 143.909 155.787C145.833 155.787 145.833 152.965 143.909 152.965H52.0277C47.8011 152.965 43.5452 152.84 39.3186 152.965C39.2601 152.965 39.1943 152.965 39.1358 152.965C37.2126 152.965 37.2126 155.787 39.1358 155.787H39.1284Z" fill="black"/>
<path d="M41.7744 140.1H129.013C133.02 140.1 137.056 140.224 141.071 140.1C141.13 140.1 141.188 140.1 141.247 140.1C143.17 140.1 143.17 137.278 141.247 137.278H54.0083C50.001 137.278 45.9645 137.153 41.9499 137.278C41.8914 137.278 41.8329 137.278 41.7744 137.278C39.8512 137.278 39.8512 140.1 41.7744 140.1Z" fill="black"/>
<path d="M51.0635 124.418H101.834C108.562 124.418 115.289 124.418 122.017 124.418C125.278 124.418 128.569 124.536 131.83 124.418C131.874 124.418 131.925 124.418 131.969 124.418C133.892 124.418 133.892 121.596 131.969 121.596H61.0158C57.7544 121.596 54.4638 121.479 51.2024 121.596C51.1586 121.596 51.1074 121.596 51.0635 121.596C49.1403 121.596 49.1403 124.418 51.0635 124.418Z" fill="black"/>
<path d="M50.3984 187.146H121.907C125.205 187.146 128.533 187.264 131.823 187.146C131.867 187.146 131.918 187.146 131.962 187.146C133.885 187.146 133.885 184.324 131.962 184.324H60.4531C57.1552 184.324 53.828 184.207 50.5374 184.324C50.4935 184.324 50.4423 184.324 50.3984 184.324C48.4753 184.324 48.4753 187.146 50.3984 187.146Z" fill="black"/>
<path d="M41.7769 171.465H129.015C133.022 171.465 137.059 171.59 141.073 171.465C141.132 171.465 141.19 171.465 141.249 171.465C143.172 171.465 143.172 168.643 141.249 168.643H131.297C123.399 168.643 115.494 168.643 107.597 168.643C98.0174 168.643 88.438 168.643 78.8513 168.643H54.0034C49.9961 168.643 45.9596 168.519 41.9451 168.643C41.8866 168.643 41.828 168.643 41.7695 168.643C39.8464 168.643 39.8464 171.465 41.7695 171.465H41.7769Z" fill="black"/>
<path d="M21.5487 50.2456L27.0184 64.2104L41.7751 69.3771L27.0184 74.5438L21.5487 88.5086L16.0862 74.5438L1.32227 69.3771L16.0862 64.2104L21.5487 50.2456Z" fill="white"/>
<path d="M21.55 89.7668C20.9942 89.7668 20.497 89.4417 20.3069 88.9506L15.0565 75.5254L0.862871 70.5592C0.343683 70.3794 0 69.9091 0 69.3834C0 68.8578 0.343683 68.3874 0.862871 68.2076L15.0565 63.2414L20.3069 49.8162C20.497 49.3251 20.9942 49 21.55 49C22.1057 49 22.603 49.3251 22.7931 49.8162L28.0435 63.2414L42.2371 68.2076C42.7562 68.3874 43.0999 68.8578 43.0999 69.3834C43.0999 69.9091 42.7562 70.3794 42.2371 70.5592L28.0435 75.5254L22.7931 88.9506C22.603 89.4417 22.1057 89.7668 21.55 89.7668ZM5.14803 69.3765L16.5482 73.3674C16.9138 73.4919 17.199 73.7616 17.3307 74.1075L21.55 84.8906L25.7693 74.1075C25.9009 73.7616 26.1934 73.4919 26.5517 73.3674L37.9519 69.3765L26.5517 65.3856C26.1861 65.2611 25.9009 64.9913 25.7693 64.6455L21.55 53.8624L17.3307 64.6455C17.199 64.9913 16.9065 65.2611 16.5482 65.3856L5.14803 69.3765Z" fill="black"/>
<path d="M47.0854 82.2324L50.3102 90.4771L59.0194 93.5273L50.3102 96.5776L47.0854 104.815L43.8606 96.5776L35.1514 93.5273L43.8606 90.4771L47.0854 82.2324Z" fill="white"/>
<path d="M47.0857 106.075C46.53 106.075 46.0327 105.75 45.8426 105.259L42.8298 97.5605L34.691 94.7109C34.1718 94.531 33.8281 94.0607 33.8281 93.535C33.8281 93.0094 34.1718 92.539 34.691 92.3592L42.8298 89.5095L45.8426 81.8113C46.0327 81.3202 46.53 80.9951 47.0857 80.9951C47.6415 80.9951 48.1387 81.3202 48.3288 81.8113L51.3416 89.5095L59.4804 92.3592C59.9996 92.539 60.3433 93.0094 60.3433 93.535C60.3433 94.0607 59.9996 94.531 59.4804 94.7109L51.3416 97.5605L48.3288 105.259C48.1387 105.75 47.6415 106.075 47.0857 106.075ZM38.9688 93.5281L44.3216 95.4025C44.6872 95.527 44.9724 95.7968 45.104 96.1426L47.0857 101.206L49.0674 96.1426C49.199 95.7968 49.4915 95.527 49.8499 95.4025L55.2026 93.5281L49.8499 91.6537C49.4842 91.5292 49.199 91.2594 49.0674 90.9136L47.0857 85.8506L45.104 90.9136C44.9724 91.2594 44.6799 91.5292 44.3216 91.6537L38.9688 93.5281Z" fill="black"/>
<path d="M152.194 190.127L157.657 204.092L172.421 209.258L157.657 214.425L152.194 228.39L146.732 214.425L131.968 209.258L146.732 204.092L152.194 190.127Z" fill="white"/>
<path d="M152.194 229.643C151.639 229.643 151.141 229.318 150.951 228.827L145.701 215.401L131.507 210.435C130.988 210.255 130.645 209.785 130.645 209.259C130.645 208.734 130.988 208.263 131.507 208.084L145.701 203.117L150.951 189.692C151.141 189.201 151.639 188.876 152.194 188.876C152.75 188.876 153.247 189.201 153.438 189.692L158.688 203.117L172.882 208.084C173.401 208.263 173.744 208.734 173.744 209.259C173.744 209.785 173.401 210.255 172.882 210.435L158.688 215.401L153.438 228.827C153.247 229.318 152.75 229.643 152.194 229.643ZM135.793 209.259L147.193 213.25C147.558 213.375 147.844 213.645 147.975 213.99L152.194 224.773L156.414 213.99C156.545 213.645 156.838 213.375 157.196 213.25L168.596 209.259L157.196 205.268C156.831 205.144 156.545 204.874 156.414 204.528L152.194 193.745L147.975 204.528C147.844 204.874 147.551 205.144 147.193 205.268L135.793 209.259Z" fill="black"/>
<path d="M136.612 84.7446L139.837 92.9893L148.546 96.0396L139.837 99.0829L136.612 107.328L133.387 99.0829L124.678 96.0396L133.387 92.9893L136.612 84.7446Z" fill="white"/>
<path d="M136.613 108.579C136.057 108.579 135.56 108.254 135.37 107.763L132.357 100.064L124.218 97.2148C123.699 97.0349 123.355 96.5646 123.355 96.0389C123.355 95.5133 123.699 95.0429 124.218 94.8631L132.357 92.0134L135.37 84.3152C135.56 83.8241 136.057 83.499 136.613 83.499C137.169 83.499 137.666 83.8241 137.856 84.3152L140.869 92.0134L149.008 94.8631C149.527 95.0429 149.871 95.5133 149.871 96.0389C149.871 96.5646 149.527 97.0349 149.008 97.2148L140.869 100.064L137.856 107.763C137.666 108.254 137.169 108.579 136.613 108.579ZM128.496 96.0389L133.849 97.9134C134.215 98.0379 134.5 98.3076 134.631 98.6534L136.613 103.716L138.595 98.6534C138.726 98.3076 139.019 98.0379 139.377 97.9134L144.73 96.0389L139.377 94.1645C139.012 94.04 138.726 93.7703 138.595 93.4244L136.613 88.3614L134.631 93.4244C134.5 93.7703 134.207 94.04 133.849 94.1645L128.496 96.0389Z" fill="black"/>
<path d="M35.1523 217.094L38.3698 225.338L47.0863 228.389L38.3698 231.439L35.1523 239.677L31.9275 231.439L23.2109 228.389L31.9275 225.338L35.1523 217.094Z" fill="white"/>
<path d="M35.1511 240.936C34.5954 240.936 34.0981 240.611 33.908 240.12L30.8953 232.422L22.7564 229.572C22.2372 229.392 21.8936 228.922 21.8936 228.396C21.8936 227.871 22.2372 227.4 22.7564 227.221L30.8953 224.371L33.908 216.673C34.0981 216.182 34.5954 215.856 35.1511 215.856C35.7069 215.856 36.2041 216.182 36.3943 216.673L39.407 224.371L47.5459 227.221C48.065 227.4 48.4087 227.871 48.4087 228.396C48.4087 228.922 48.065 229.392 47.5459 229.572L39.407 232.422L36.3943 240.12C36.2041 240.611 35.7069 240.936 35.1511 240.936ZM27.0343 228.389L32.387 230.264C32.7527 230.388 33.0379 230.658 33.1695 231.004L35.1511 236.067L37.1328 231.004C37.2645 230.658 37.557 230.388 37.9153 230.264L43.268 228.389L37.9153 226.515C37.5497 226.391 37.2645 226.121 37.1328 225.775L35.1511 220.712L33.1695 225.775C33.0379 226.121 32.7453 226.391 32.387 226.515L27.0343 228.389Z" fill="black"/>
<path d="M90.0194 1.47651V6.89355C90.0194 11.7613 90.0194 16.6292 90.0194 21.497C90.0194 26.3648 90.0194 35.9273 90.0194 43.1425V98.3811C90.0194 108.147 90.0194 117.913 90.0194 127.678C90.0194 136.722 90.0194 145.765 90.0194 154.809C90.0194 162.475 90.0194 170.149 90.0194 177.816C90.0194 183.331 90.0194 188.846 90.0194 194.36C90.0194 196.964 89.9758 199.574 90.0194 202.177C90.0194 202.29 90.0194 202.403 90.0194 202.516C90.0194 204.495 92.9806 204.495 92.9806 202.516V49.1915C92.9806 41.5249 92.9806 33.8508 92.9806 26.1842C92.9806 20.6693 92.9806 15.1545 92.9806 9.63967C92.9806 7.03649 93.0242 4.42577 92.9806 1.82259C92.9806 1.70974 92.9806 1.59689 92.9806 1.48404C92.9806 -0.49468 90.0194 -0.49468 90.0194 1.48404V1.47651Z" fill="black"/>
</svg>
