<svg width="156" height="130" viewBox="0 0 156 130" fill="none" xmlns="http://www.w3.org/2000/svg">
<path d="M148.173 61.3724C143.472 64.6861 139.947 65.0034 139.523 65.1091L140.934 68.9868C145.399 68.6695 150.382 67.1537 153.203 63.7695C156.023 60.3854 155.459 57.3537 154.801 57.0012C154.143 56.6486 152.874 58.0587 148.173 61.3724Z" fill="black"/>
<path fill-rule="evenodd" clip-rule="evenodd" d="M100.627 26.278C123.759 33.2438 140.034 49.8335 140.034 69.1907C140.034 85.5797 128.367 99.985 110.75 108.245C110.218 108.553 109.492 109.272 109.717 110.411L109.751 110.56L113.611 127.343H100.195L96.1895 117.039C95.6586 115.673 94.8094 113.789 91.2379 114.324C86.4376 115.165 81.4258 115.61 76.2711 115.61C70.831 115.61 65.55 115.114 60.5087 114.181L60.5085 114.182L60.4871 114.177L60.3186 114.145C59.2577 113.996 57.4159 114.589 56.4902 116.756L52.3979 127.342H38.4722L42.6309 111.838C43.0145 109.606 41.6382 108.229 40.7134 107.728C28.8609 101.92 19.8337 93.2914 15.4478 83.1634H15.4327C14.8149 82.0179 13.6428 81.2448 12.2986 81.2448C12.2663 81.2448 12.234 81.2452 12.2018 81.2461V81.2293H4.1851C2.9783 81.2293 2 80.251 2 79.0442V61.5821C2 60.3753 2.9783 59.3969 4.1851 59.3969H11.1825V59.396L11.2289 59.3969H11.3395C12.6961 59.3775 13.8795 58.6424 14.5292 57.5522C16.3996 52.2781 19.5115 47.3674 23.6244 42.995L22.557 28.9949L32.6008 35.3672C38.6923 31.1974 45.9104 27.8898 53.8872 25.7123C54.7587 13.5755 64.8811 4 77.24 4C89.7902 4 100.034 13.8745 100.627 26.278Z" fill="white"/>
<path d="M100.627 26.278L98.6288 26.3735C98.6692 27.2198 99.2386 27.9488 100.05 28.1931L100.627 26.278ZM110.75 108.245L109.901 106.434C109.849 106.458 109.798 106.485 109.748 106.514L110.75 108.245ZM109.717 110.411L107.755 110.798C107.759 110.818 107.763 110.839 107.768 110.859L109.717 110.411ZM109.751 110.56L107.802 111.008V111.008L109.751 110.56ZM113.611 127.343V129.343C114.22 129.343 114.796 129.065 115.175 128.588C115.555 128.112 115.696 127.488 115.56 126.894L113.611 127.343ZM100.195 127.343L98.3309 128.067C98.6297 128.836 99.37 129.343 100.195 129.343V127.343ZM96.1895 117.039L94.3254 117.763L96.1895 117.039ZM91.2379 114.324L90.9416 112.346C90.9253 112.348 90.9091 112.351 90.893 112.354L91.2379 114.324ZM60.5087 114.181L60.8728 112.214C60.3405 112.116 59.791 112.237 59.3499 112.551C58.9087 112.864 58.6135 113.343 58.5317 113.878L60.5087 114.181ZM60.5085 114.182L60.0364 116.125C60.581 116.258 61.1563 116.155 61.6219 115.843C62.0875 115.531 62.4009 115.038 62.4856 114.484L60.5085 114.182ZM60.4871 114.177L60.9593 112.233C60.9243 112.225 60.8891 112.217 60.8537 112.211L60.4871 114.177ZM60.3186 114.145L60.6851 112.179C60.6559 112.174 60.6265 112.169 60.5971 112.165L60.3186 114.145ZM56.4902 116.756L54.651 115.971C54.6419 115.992 54.6331 116.013 54.6248 116.035L56.4902 116.756ZM52.3979 127.342V129.342C53.2242 129.342 53.9655 128.834 54.2634 128.063L52.3979 127.342ZM38.4722 127.342L36.5405 126.824C36.3793 127.425 36.5068 128.066 36.8853 128.559C37.2638 129.053 37.8503 129.342 38.4722 129.342V127.342ZM42.6309 111.838L44.5626 112.357C44.5785 112.297 44.5916 112.238 44.602 112.177L42.6309 111.838ZM40.7134 107.728L41.6665 105.969C41.6424 105.956 41.618 105.944 41.5934 105.932L40.7134 107.728ZM15.4478 83.1634L17.2831 82.3686C16.9663 81.6369 16.2451 81.1634 15.4478 81.1634V83.1634ZM15.4327 83.1634L13.6724 84.1128C14.0215 84.7599 14.6975 85.1634 15.4327 85.1634V83.1634ZM12.2018 81.2461H10.2018C10.2018 81.7862 10.4202 82.3033 10.8074 82.6798C11.1945 83.0563 11.7175 83.2603 12.2573 83.2453L12.2018 81.2461ZM12.2018 81.2293H14.2018C14.2018 80.1247 13.3064 79.2293 12.2018 79.2293V81.2293ZM11.1825 59.3969V61.3969C12.287 61.3969 13.1825 60.5015 13.1825 59.3969H11.1825ZM11.1825 59.396L11.2232 57.3964C10.6858 57.3855 10.1667 57.5913 9.78274 57.9675C9.39882 58.3436 9.18248 58.8585 9.18248 59.396H11.1825ZM11.2289 59.3969L11.1882 61.3965C11.2018 61.3968 11.2153 61.3969 11.2289 61.3969V59.3969ZM11.3395 59.3969V61.3969C11.3491 61.3969 11.3587 61.3969 11.3682 61.3967L11.3395 59.3969ZM14.5292 57.5522L16.2472 58.5761C16.3144 58.4634 16.3703 58.3444 16.4141 58.2207L14.5292 57.5522ZM23.6244 42.995L25.0812 44.3653C25.4663 43.9559 25.6614 43.4034 25.6187 42.843L23.6244 42.995ZM22.557 28.9949L23.6284 27.3061C22.9894 26.9007 22.1762 26.8907 21.5274 27.2803C20.8786 27.6699 20.5052 28.3923 20.5628 29.147L22.557 28.9949ZM32.6008 35.3672L31.5293 37.056C32.2047 37.4845 33.0705 37.4694 33.7305 37.0176L32.6008 35.3672ZM53.8872 25.7123L54.4139 27.6417C55.2327 27.4182 55.8212 26.7022 55.882 25.8556L53.8872 25.7123ZM142.034 69.1907C142.034 48.6047 124.794 31.4668 101.203 24.363L100.05 28.1931C122.723 35.0207 138.034 51.0624 138.034 69.1907H142.034ZM111.599 110.056C129.651 101.592 142.034 86.6125 142.034 69.1907H138.034C138.034 84.5469 127.083 98.3782 109.901 106.434L111.599 110.056ZM109.748 106.514C108.849 107.034 107.295 108.464 107.755 110.798L111.679 110.024C111.675 110.002 111.675 109.993 111.675 109.994C111.675 109.996 111.675 110.003 111.673 110.014C111.668 110.038 111.659 110.054 111.658 110.057C111.658 110.057 111.666 110.044 111.689 110.023C111.699 110.013 111.711 110.003 111.723 109.995C111.735 109.986 111.745 109.98 111.751 109.976L109.748 106.514ZM107.768 110.859L107.802 111.008L111.7 110.112L111.666 109.963L107.768 110.859ZM107.802 111.008L111.661 127.791L115.56 126.894L111.7 110.112L107.802 111.008ZM113.611 125.343H100.195V129.343H113.611V125.343ZM102.059 126.618L98.0536 116.314L94.3254 117.763L98.3309 128.067L102.059 126.618ZM98.0536 116.314C97.7886 115.632 97.2864 114.344 96.0964 113.401C94.8184 112.388 93.1044 112.022 90.9416 112.346L91.5343 116.302C92.943 116.091 93.4392 116.399 93.6115 116.536C93.8716 116.742 94.0596 117.079 94.3254 117.763L98.0536 116.314ZM76.2711 117.61C81.5408 117.61 86.668 117.155 91.5829 116.294L90.893 112.354C86.2072 113.174 81.3108 113.61 76.2711 113.61V117.61ZM60.1447 116.147C65.3068 117.103 70.7096 117.61 76.2711 117.61V113.61C70.9523 113.61 65.7932 113.125 60.8728 112.214L60.1447 116.147ZM62.4856 114.484L62.4858 114.483L58.5317 113.878L58.5315 113.88L62.4856 114.484ZM60.0149 116.12L60.0364 116.125L60.9807 112.238L60.9593 112.233L60.0149 116.12ZM59.952 116.111L60.1206 116.143L60.8537 112.211L60.6851 112.179L59.952 116.111ZM58.3295 117.542C58.9011 116.204 59.8761 116.103 60.04 116.126L60.5971 112.165C58.6392 111.889 55.9307 112.975 54.651 115.971L58.3295 117.542ZM54.2634 128.063L58.3557 117.477L54.6248 116.035L50.5325 126.621L54.2634 128.063ZM38.4722 129.342H52.3979V125.342H38.4722V129.342ZM40.6992 111.32L36.5405 126.824L40.4039 127.86L44.5626 112.357L40.6992 111.32ZM39.7603 109.486C39.9487 109.588 40.2427 109.821 40.4479 110.163C40.6293 110.465 40.7653 110.886 40.6598 111.5L44.602 112.177C45.1769 108.832 43.074 106.732 41.6665 105.969L39.7603 109.486ZM13.6125 83.9581C18.23 94.6211 27.6604 103.559 39.8334 109.524L41.5934 105.932C30.0614 100.281 21.4374 91.9618 17.2831 82.3686L13.6125 83.9581ZM15.4327 85.1634H15.4478V81.1634H15.4327V85.1634ZM12.2986 83.2448C12.8447 83.2448 13.3728 83.5572 13.6724 84.1128L17.193 82.2139C16.257 80.4786 14.4409 79.2448 12.2986 79.2448V83.2448ZM12.2573 83.2453C12.271 83.2449 12.2848 83.2448 12.2986 83.2448V79.2448C12.2477 79.2448 12.197 79.2455 12.1464 79.2469L12.2573 83.2453ZM10.2018 81.2293V81.2461H14.2018V81.2293H10.2018ZM4.1851 83.2293H12.2018V79.2293H4.1851V83.2293ZM0 79.0442C0 81.3555 1.87374 83.2293 4.1851 83.2293V79.2293C4.08287 79.2293 4 79.1464 4 79.0442H0ZM0 61.5821V79.0442H4V61.5821H0ZM4.1851 57.3969C1.87373 57.3969 0 59.2707 0 61.5821H4C4 61.4798 4.08288 61.3969 4.1851 61.3969V57.3969ZM11.1825 57.3969H4.1851V61.3969H11.1825V57.3969ZM9.18248 59.396V59.3969H13.1825V59.396H9.18248ZM11.2697 57.3974L11.2232 57.3964L11.1417 61.3956L11.1882 61.3965L11.2697 57.3974ZM11.3395 57.3969H11.2289V61.3969H11.3395V57.3969ZM12.8111 56.5284C12.5026 57.0461 11.9454 57.388 11.3108 57.3972L11.3682 61.3967C13.4468 61.3669 15.2565 60.2386 16.2472 58.5761L12.8111 56.5284ZM22.1677 41.6247C17.8885 46.1738 14.6181 51.318 12.6442 56.8837L16.4141 58.2207C18.1812 53.2382 21.1346 48.561 25.0812 44.3653L22.1677 41.6247ZM20.5628 29.147L21.6302 43.1471L25.6187 42.843L24.5512 28.8429L20.5628 29.147ZM33.6722 33.6785L23.6284 27.3061L21.4855 30.6837L31.5293 37.056L33.6722 33.6785ZM53.3605 23.7829C45.186 26.0143 37.761 29.4112 31.471 33.7169L33.7305 37.0176C39.6236 32.9836 46.6347 29.7652 54.4139 27.6417L53.3605 23.7829ZM77.24 2C63.8245 2 52.8384 12.3936 51.8923 25.5691L55.882 25.8556C56.679 14.7575 65.9377 6 77.24 6V2ZM102.624 26.1826C101.981 12.7179 90.8628 2 77.24 2V6C88.7176 6 98.0872 15.031 98.6288 26.3735L102.624 26.1826Z" fill="black"/>
<mask id="path-4-outside-1_1169_264" maskUnits="userSpaceOnUse" x="49.8157" y="0.847412" width="54" height="43" fill="black">
<rect fill="white" x="49.8157" y="0.847412" width="54" height="43"/>
<path fill-rule="evenodd" clip-rule="evenodd" d="M95.6733 39.5164C98.1478 35.966 99.593 31.6839 99.593 27.074C99.593 14.7986 89.3454 4.84741 76.7043 4.84741C64.0633 4.84741 53.8157 14.7986 53.8157 27.074C53.8157 31.8205 55.3478 36.2196 57.9581 39.8302C70.9691 34.9561 86.9555 36.9142 95.6733 39.5164Z"/>
</mask>
<path fill-rule="evenodd" clip-rule="evenodd" d="M95.6733 39.5164C98.1478 35.966 99.593 31.6839 99.593 27.074C99.593 14.7986 89.3454 4.84741 76.7043 4.84741C64.0633 4.84741 53.8157 14.7986 53.8157 27.074C53.8157 31.8205 55.3478 36.2196 57.9581 39.8302C70.9691 34.9561 86.9555 36.9142 95.6733 39.5164Z" fill="white"/>
<path d="M95.6733 39.5164L94.5292 43.3493C96.1834 43.8431 97.9678 43.2198 98.9549 41.8035L95.6733 39.5164ZM57.9581 39.8302L54.7165 42.1737C55.7722 43.6339 57.6739 44.2081 59.3613 43.576L57.9581 39.8302ZM95.593 27.074C95.593 30.8324 94.4181 34.3218 92.3917 37.2293L98.9549 41.8035C101.877 37.6103 103.593 32.5354 103.593 27.074H95.593ZM76.7043 8.84741C87.2477 8.84741 95.593 17.1176 95.593 27.074H103.593C103.593 12.4796 91.443 0.847412 76.7043 0.847412V8.84741ZM57.8157 27.074C57.8157 17.1176 66.1609 8.84741 76.7043 8.84741V0.847412C61.9656 0.847412 49.8157 12.4796 49.8157 27.074H57.8157ZM61.1997 37.4867C59.061 34.5283 57.8157 30.9431 57.8157 27.074H49.8157C49.8157 32.6979 51.6347 37.9108 54.7165 42.1737L61.1997 37.4867ZM59.3613 43.576C71.2472 39.1234 86.2645 40.8824 94.5292 43.3493L96.8174 35.6835C87.6464 32.946 70.691 30.7888 56.5549 36.0844L59.3613 43.576Z" fill="black" mask="url(#path-4-outside-1_1169_264)"/>
<path d="M101.325 45C92.7193 40.4723 71.0712 34.1334 53.3252 45" stroke="black" stroke-width="4" stroke-linecap="round" stroke-linejoin="round"/>
</svg>
