<svg width="140" height="136" viewBox="0 0 140 136" fill="none" xmlns="http://www.w3.org/2000/svg">
<path d="M107.767 2.57568C106.662 2.57568 105.767 3.47111 105.767 4.57568V95.7483C105.767 96.8528 106.662 97.7483 107.767 97.7483H123.896C131.364 97.7483 137.417 91.6949 137.417 84.2277V16.0962C137.417 8.62904 131.364 2.57568 123.896 2.57568H107.767Z" fill="white" stroke="black" stroke-width="4" stroke-linejoin="round"/>
<mask id="path-2-inside-1_1169_291" fill="white">
<path fill-rule="evenodd" clip-rule="evenodd" d="M124.235 23.0354H12.1065C5.74386 23.0354 0.585938 28.1933 0.585938 34.556V104.208C0.585938 110.571 5.74385 115.729 12.1065 115.729H127.893C134.256 115.729 139.414 110.571 139.414 104.208V34.556C139.414 34.5323 139.414 34.5087 139.414 34.4851V15.9668C136.9 22.6135 127.969 23.0183 124.235 23.0354Z"/>
</mask>
<path fill-rule="evenodd" clip-rule="evenodd" d="M124.235 23.0354H12.1065C5.74386 23.0354 0.585938 28.1933 0.585938 34.556V104.208C0.585938 110.571 5.74385 115.729 12.1065 115.729H127.893C134.256 115.729 139.414 110.571 139.414 104.208V34.556C139.414 34.5323 139.414 34.5087 139.414 34.4851V15.9668C136.9 22.6135 127.969 23.0183 124.235 23.0354Z" fill="white"/>
<path d="M124.235 23.0354V27.0354C124.241 27.0354 124.248 27.0354 124.254 27.0354L124.235 23.0354ZM139.414 34.4851H135.414C135.414 34.4928 135.414 34.5006 135.414 34.5083L139.414 34.4851ZM139.414 15.9668H143.414C143.414 14.0351 142.033 12.3794 140.133 12.032C138.233 11.6846 136.356 12.7448 135.673 14.5516L139.414 15.9668ZM12.1065 27.0354H124.235V19.0354H12.1065V27.0354ZM4.58594 34.556C4.58594 30.4025 7.953 27.0354 12.1065 27.0354V19.0354C3.53473 19.0354 -3.41406 25.9842 -3.41406 34.556H4.58594ZM4.58594 104.208V34.556H-3.41406V104.208H4.58594ZM12.1065 111.729C7.953 111.729 4.58594 108.362 4.58594 104.208H-3.41406C-3.41406 112.78 3.53471 119.729 12.1065 119.729V111.729ZM127.893 111.729H12.1065V119.729H127.893V111.729ZM135.414 104.208C135.414 108.362 132.047 111.729 127.893 111.729V119.729C136.465 119.729 143.414 112.78 143.414 104.208H135.414ZM135.414 34.556V104.208H143.414V34.556H135.414ZM135.414 34.5083C135.414 34.5251 135.414 34.5409 135.414 34.556H143.414C143.414 34.5237 143.414 34.4923 143.414 34.4618L135.414 34.5083ZM143.414 34.4851V15.9668H135.414V34.4851H143.414ZM135.673 14.5516C135.028 16.2548 133.511 17.4183 131.097 18.1665C128.676 18.9172 126.003 19.0273 124.217 19.0355L124.254 27.0354C126.201 27.0264 129.86 26.9255 133.466 25.8078C137.079 24.6878 141.285 22.3255 143.155 17.382L135.673 14.5516Z" fill="black" mask="url(#path-2-inside-1_1169_291)"/>
<path fill-rule="evenodd" clip-rule="evenodd" d="M2.74718 56.4274L2.74707 56.4274V37.1138C4.51575 42.688 8.37519 44.6508 12.2481 45.2599L35.0231 45.2599V133.425H14.2677C7.9051 133.425 2.74718 128.267 2.74718 121.904V56.4274Z" fill="white"/>
<path d="M2.74718 56.4274H4.74718C4.74718 55.7331 4.38709 55.0884 3.79589 54.7244C3.20468 54.3603 2.46696 54.3289 1.84697 54.6414L2.74718 56.4274ZM2.74707 56.4274H0.74707C0.74707 57.1217 1.10716 57.7664 1.69836 58.1304C2.28957 58.4945 3.02729 58.5259 3.64729 58.2134L2.74707 56.4274ZM2.74707 37.1138L4.65341 36.5089C4.35508 35.5687 3.41581 34.9864 2.44103 35.1373C1.46624 35.2883 0.74707 36.1274 0.74707 37.1138H2.74707ZM12.2481 45.2599L11.9374 47.2356C12.0401 47.2517 12.144 47.2599 12.2481 47.2599V45.2599ZM35.0231 45.2599H37.0231C37.0231 44.7294 36.8124 44.2207 36.4374 43.8456C36.0623 43.4706 35.5536 43.2599 35.0231 43.2599V45.2599ZM35.0231 133.425V135.425C36.1277 135.425 37.0231 134.529 37.0231 133.425H35.0231ZM1.84697 54.6414L1.84686 54.6415L3.64729 58.2134L3.6474 58.2133L1.84697 54.6414ZM4.74707 56.4274V37.1138H0.74707V56.4274H4.74707ZM0.840732 37.7186C1.83856 40.8634 3.47219 43.108 5.50173 44.6437C7.5097 46.1629 9.78336 46.8968 11.9374 47.2356L12.5588 43.2841C10.8399 43.0138 9.24739 42.4618 7.91525 41.4538C6.60468 40.4622 5.42426 38.9383 4.65341 36.5089L0.840732 37.7186ZM35.0231 43.2599L12.2481 43.2599V47.2599L35.0231 47.2599V43.2599ZM37.0231 133.425V45.2599H33.0231V133.425H37.0231ZM14.2677 135.425H35.0231V131.425H14.2677V135.425ZM0.74718 121.904C0.74718 129.372 6.80054 135.425 14.2677 135.425V131.425C9.00967 131.425 4.74718 127.162 4.74718 121.904H0.74718ZM0.74718 56.4274V121.904H4.74718V56.4274H0.74718Z" fill="black"/>
<path d="M135.357 15.1616C135.146 20.7803 128.821 22.6948 125.603 23.0459L127.127 25.0521L137.097 23.0459L137.574 18.5555L135.357 15.1616Z" fill="black"/>
<path fill-rule="evenodd" clip-rule="evenodd" d="M113.748 56.2288C113.495 56.3993 113.365 56.6264 112.986 57.5547C112.04 59.8714 111.332 61.1252 108.724 65.102C106.787 68.0558 106.175 69.0756 105.577 70.3468C105.019 71.5314 104.652 72.5845 104.393 73.7422C104.097 75.0665 104.1 77.5536 104.398 78.9428C105.19 82.6291 107.179 84.8796 111.641 87.1364L113.173 87.9118L113.218 91.4512C113.267 95.2956 113.262 95.2601 113.786 95.5794C114.332 95.9125 115.044 95.7378 115.379 95.1885C115.538 94.9274 115.555 94.7259 115.556 93.0131L115.557 91.1253L116.163 90.7513C118.072 89.573 120.612 87.2433 121.782 85.5971C122.927 83.9865 123.927 81.6754 124.311 79.7542C124.676 77.9218 124.718 75.6043 124.411 74.1435C124.184 73.0633 123.779 71.9168 123.192 70.6924C122.519 69.2881 121.848 68.1762 119.935 65.2976C118.037 62.4413 117.567 61.671 116.856 60.2479C116.326 59.1883 115.648 57.5187 115.643 57.263C115.642 57.199 115.564 56.9756 115.469 56.7665C115.15 56.0635 114.36 55.8167 113.748 56.2288ZM115.445 62.6768C115.795 63.2958 116.9 65.0352 117.9 66.542C119.906 69.5667 120.741 70.9646 121.291 72.2218C122.099 74.0669 122.365 75.5675 122.213 77.4264C122.044 79.5054 121.72 80.7431 120.909 82.406C120.264 83.7301 119.48 84.8152 118.342 85.9623C117.47 86.8413 115.825 88.2039 115.636 88.2039C115.589 88.2039 115.555 85.635 115.555 82.023V75.842L117.173 74.2257C118.244 73.1561 118.825 72.5083 118.89 72.3106C119.175 71.4487 118.358 70.5836 117.471 70.8064C117.337 70.84 116.879 71.2084 116.453 71.6253C116.027 72.0421 115.651 72.3831 115.617 72.3831C115.583 72.3831 115.555 71.661 115.555 70.7784C115.555 69.2566 115.545 69.1579 115.35 68.8682C115.218 68.6718 115.01 68.5156 114.766 68.4307C114.432 68.3146 114.341 68.3146 114.008 68.4307C113.764 68.5156 113.555 68.6718 113.423 68.8682L113.218 69.1737V73.9695C113.218 76.6073 113.187 78.7654 113.15 78.7654C113.112 78.7654 112.434 78.114 111.644 77.318C110.854 76.5218 110.071 75.8117 109.905 75.7397C108.949 75.3251 107.99 76.4519 108.493 77.399C108.564 77.5325 109.656 78.673 110.92 79.9333L113.218 82.2248V83.7312C113.218 84.5596 113.197 85.2375 113.172 85.2375C113.146 85.2375 112.731 85.0395 112.25 84.7975C109.774 83.552 108.021 81.9331 107.242 80.1716C106.539 78.5815 106.313 75.7618 106.752 74.0517C107.32 71.8367 108.032 70.4727 110.88 66.1357C112.564 63.5712 113.225 62.5022 113.979 61.1181L114.313 60.5052L114.56 61.0282C114.696 61.316 115.094 62.0578 115.445 62.6768Z" fill="black"/>
<path d="M49.709 25.8579L49.709 50.1621" stroke="black" stroke-width="3.9726" stroke-linecap="round" stroke-linejoin="round"/>
<circle cx="49.7087" cy="25.8577" r="9.60623" fill="white" stroke="black" stroke-width="3.9726"/>
<path d="M122.838 103.539L47.7559 103.539" stroke="black" stroke-width="3.57534" stroke-linecap="round" stroke-linejoin="round"/>
<path d="M114.395 44.6738L58.6953 44.6738" stroke="black" stroke-width="3.57534" stroke-linecap="round" stroke-linejoin="round"/>
<path d="M98.0342 61.0503L58.6953 61.0503" stroke="black" stroke-width="3.57534" stroke-linecap="round" stroke-linejoin="round"/>
<circle cx="49.7086" cy="59.0968" r="1.95371" fill="black"/>
<circle cx="49.7086" cy="67.7711" r="1.95371" fill="black"/>
<circle cx="49.7086" cy="76.4459" r="1.95371" fill="black"/>
<circle cx="49.7086" cy="85.1202" r="1.95371" fill="black"/>
<circle cx="49.7086" cy="93.795" r="1.95371" fill="black"/>
<circle cx="70.0563" cy="93.7943" r="1.95371" transform="rotate(-90 70.0563 93.7943)" fill="black"/>
<circle cx="60.648" cy="93.7943" r="1.95371" transform="rotate(-90 60.648 93.7943)" fill="black"/>
<circle cx="78.7301" cy="93.7943" r="1.95371" transform="rotate(-90 78.7301 93.7943)" fill="black"/>
<circle cx="87.4049" cy="93.7943" r="1.95371" transform="rotate(-90 87.4049 93.7943)" fill="black"/>
<circle cx="96.0787" cy="93.7943" r="1.95371" transform="rotate(-90 96.0787 93.7943)" fill="black"/>
<circle cx="104.754" cy="93.7943" r="1.95371" transform="rotate(-90 104.754 93.7943)" fill="black"/>
<circle cx="104.754" cy="61.0497" r="1.95371" transform="rotate(-90 104.754 61.0497)" fill="black"/>
<circle cx="124.616" cy="44.6737" r="1.95371" transform="rotate(-90 124.616 44.6737)" fill="black"/>
<circle cx="119.375" cy="44.6737" r="1.95371" transform="rotate(-90 119.375 44.6737)" fill="black"/>
<rect x="58.6953" y="76.4453" width="39.3389" height="8.50948" rx="1.9863" stroke="black" stroke-width="2.38356" stroke-linejoin="round"/>
</svg>
