<svg width="47" height="48" viewBox="0 0 47 48" fill="none" xmlns="http://www.w3.org/2000/svg">
<path d="M33.1981 17.3269C36.0963 19.5413 39.6467 20.8442 43.4813 20.8442V12.9572C42.7556 12.9574 42.0317 12.8765 41.3217 12.7157V18.9239C37.4875 18.9239 33.9375 17.621 31.0386 15.4068V31.5017C31.0386 39.5533 24.932 46.0798 17.3997 46.0798C14.5891 46.0798 11.9769 45.1716 9.80688 43.6141C12.2836 46.3208 15.7375 48 19.5587 48C27.0916 48 33.1984 41.4734 33.1984 33.4215V17.3269H33.1981ZM35.8622 9.36999C34.381 7.64045 33.4086 5.40535 33.1981 2.93435V1.91992H31.1517C31.6668 5.06056 33.4238 7.74374 35.8622 9.36999ZM14.5711 37.4356C13.7436 36.2759 13.2964 34.8572 13.2984 33.3985C13.2984 29.716 16.0915 26.7302 19.5375 26.7302C20.1797 26.7301 20.818 26.8352 21.43 27.0427V18.9795C20.7148 18.8748 19.993 18.8303 19.2714 18.8466V25.1226C18.659 24.915 18.0203 24.8096 17.3779 24.8103C13.932 24.8103 11.139 27.7957 11.139 31.4787C11.139 34.0828 12.5351 36.3373 14.5711 37.4356Z" fill="#FF004F"/>
<path d="M31.0384 15.4066C33.9374 17.6208 37.4873 18.9237 41.3215 18.9237V12.7156C39.1813 12.2283 37.2866 11.0328 35.862 9.36999C33.4235 7.74358 31.6666 5.0604 31.1515 1.91992H25.776V33.4212C25.7638 37.0936 22.9755 40.0672 19.537 40.0672C17.5107 40.0672 15.7105 39.0348 14.5705 37.4356C12.5346 36.3373 11.1386 34.0826 11.1386 31.4788C11.1386 27.7962 13.9315 24.8104 17.3774 24.8104C18.0377 24.8104 18.674 24.9203 19.2709 25.1228V18.8468C11.8709 19.0102 5.91943 25.473 5.91943 33.4214C5.91943 37.3892 7.40148 40.9861 9.80686 43.6143C11.9769 45.1716 14.5891 46.08 17.3996 46.08C24.9322 46.08 31.0386 39.5531 31.0386 31.5017V15.4066H31.0384Z" fill="black"/>
<path d="M41.3215 12.7156V11.037C39.3915 11.0401 37.4994 10.4624 35.8619 9.36987C37.3115 11.0661 39.2202 12.2357 41.3215 12.7156ZM31.1514 1.91997C31.1023 1.61982 31.0646 1.3177 31.0384 1.01443V0H23.6163V31.5016C23.6044 35.1735 20.8162 38.1471 17.3774 38.1471C16.3678 38.1471 15.4146 37.891 14.5704 37.4358C15.7105 39.0349 17.5106 40.0671 19.5369 40.0671C22.9752 40.0671 25.7639 37.0938 25.776 33.4214V1.91997H31.1514ZM19.2712 18.8468V17.0598C18.651 16.9692 18.0258 16.9237 17.3997 16.924C9.86657 16.9239 3.76001 23.4508 3.76001 31.5016C3.76001 36.5491 6.16 40.9974 9.80696 43.614C7.40158 40.986 5.91954 37.3889 5.91954 33.4213C5.91954 25.473 11.8708 19.0102 19.2712 18.8468Z" fill="#00F2EA"/>
</svg>
