<svg width="31" height="39" viewBox="0 0 31 39" fill="none" xmlns="http://www.w3.org/2000/svg">
<g id="mingcute:arrows-down-line" clip-path="url(#clip0_1169_103)">
<g id="Group">
<path id="Vector" fill-rule="evenodd" clip-rule="evenodd" d="M7.87466 10.1556C7.64009 10.4583 7.50832 10.8687 7.50832 11.2967C7.50832 11.7246 7.64009 12.1351 7.87466 12.4377L13.2462 19.3663L7.87466 26.2949C7.75516 26.4438 7.65984 26.6219 7.59426 26.8188C7.52868 27.0157 7.49417 27.2275 7.49272 27.4418C7.49128 27.6561 7.52294 27.8686 7.58585 28.0669C7.64876 28.2653 7.74167 28.4455 7.85915 28.597C7.97664 28.7486 8.11634 28.8684 8.27011 28.9496C8.42388 29.0307 8.58865 29.0715 8.75478 29.0697C8.92092 29.0678 9.08511 29.0233 9.23776 28.9387C9.39042 28.8541 9.52849 28.7312 9.64391 28.577L15.9001 20.5074C16.1347 20.2047 16.2664 19.7943 16.2664 19.3663C16.2664 18.9384 16.1347 18.5279 15.9001 18.2253L9.64391 10.1556C9.40927 9.85305 9.09107 9.68307 8.75929 9.68307C8.4275 9.68307 8.1093 9.85305 7.87466 10.1556ZM15.3821 10.1556C15.1475 10.4583 15.0157 10.8687 15.0157 11.2967C15.0157 11.7246 15.1475 12.1351 15.3821 12.4377L20.7536 19.3663L15.3821 26.2949C15.1541 26.5993 15.028 27.007 15.0309 27.4302C15.0337 27.8533 15.1653 28.2581 15.3973 28.5574C15.6293 28.8566 15.9431 29.0263 16.2712 29.03C16.5993 29.0337 16.9153 28.871 17.1513 28.577L23.4075 20.5074C23.6421 20.2047 23.7738 19.7943 23.7738 19.3663C23.7738 18.9384 23.6421 18.5279 23.4075 18.2253L17.1513 10.1556C16.9167 9.85305 16.5985 9.68307 16.2667 9.68307C15.9349 9.68307 15.6167 9.85305 15.3821 10.1556Z" fill="white"/>
</g>
</g>
<defs>
<clipPath id="clip0_1169_103">
<rect width="38.7343" height="30.0296" fill="white" transform="matrix(3.54507e-08 1 1 -5.38969e-08 0.000244141 2.28882e-05)"/>
</clipPath>
</defs>
</svg>
